<svg width="145" height="110" viewBox="0 0 145 110" fill="none" xmlns="http://www.w3.org/2000/svg">
<circle cx="55.5" cy="54.845" r="54.5" fill="#EBF073"/>
<path d="M5.05 41.45C3.55 41.45 2.45 41.2 1.75 40.7C1.05 40.2 0.7 39.5 0.7 38.6C0.7 37.92 0.91 37.37 1.33 36.95C1.73 36.55 2.27 36.35 2.95 36.35C3.11 36.35 3.27 36.36 3.43 36.38C3.59 36.42 3.7 36.44 3.76 36.44L4.15 36.5V40.7L4.33 40.79C4.53 40.83 4.67 40.85 4.75 40.85C5.37 40.85 5.87 40.47 6.25 39.71C6.65 38.97 6.85 37.7 6.85 35.9V20.9L5.05 20.45V20H8.95C10.75 20 11.65 20.9 11.65 22.7V35.9C11.65 36.96 11.39 37.91 10.87 38.75C10.35 39.59 9.59 40.25 8.59 40.73C7.59 41.21 6.41 41.45 5.05 41.45ZM8.95 18.2C8.35 18.2 7.85 18 7.45 17.6C7.05 17.2 6.85 16.7 6.85 16.1C6.85 15.5 7.05 15 7.45 14.6C7.85 14.2 8.35 14 8.95 14C9.55 14 10.05 14.2 10.45 14.6C10.85 15 11.05 15.5 11.05 16.1C11.05 16.7 10.85 17.2 10.45 17.6C10.05 18 9.55 18.2 8.95 18.2ZM23.2023 35.45C20.6423 35.45 18.6523 34.75 17.2323 33.35C15.8123 31.93 15.1023 29.98 15.1023 27.5C15.1023 25.88 15.4123 24.47 16.0323 23.27C16.6523 22.07 17.5123 21.15 18.6123 20.51C19.7323 19.87 21.0123 19.55 22.4523 19.55C23.8923 19.55 25.1523 19.82 26.2323 20.36C27.3323 20.9 28.1723 21.63 28.7523 22.55C29.3523 23.45 29.6523 24.45 29.6523 25.55C29.6523 26.05 29.6023 26.48 29.5023 26.84L29.3523 27.35C28.4923 27.53 27.5623 27.68 26.5623 27.8C24.4623 28.1 22.3423 28.25 20.2023 28.25C20.2023 30.57 20.5223 32.23 21.1623 33.23C21.8023 34.21 22.6823 34.7 23.8023 34.7C24.5823 34.7 25.3023 34.52 25.9623 34.16C26.6423 33.78 27.1723 33.29 27.5523 32.69C27.9523 32.07 28.1523 31.44 28.1523 30.8H28.9023C28.9023 31.6 28.6623 32.36 28.1823 33.08C27.7023 33.8 27.0323 34.38 26.1723 34.82C25.3123 35.24 24.3223 35.45 23.2023 35.45ZM20.2023 27.5C21.4823 27.5 22.5223 27.45 23.3223 27.35C23.6623 27.33 24.0223 27.28 24.4023 27.2C24.4223 27.1 24.4723 26.88 24.5523 26.54C24.6523 26.04 24.7023 25.51 24.7023 24.95C24.7023 23.29 24.4823 22.08 24.0423 21.32C23.6023 20.54 23.0723 20.15 22.4523 20.15C20.9523 20.15 20.2023 22.6 20.2023 27.5ZM38.9395 35.45C37.6995 35.45 36.5895 35.18 35.6095 34.64C35.1295 34.38 34.7395 34.1 34.4395 33.8C34.1195 34.24 33.7695 34.58 33.3895 34.82C33.2095 34.94 33.0095 35.05 32.7895 35.15H32.0395V30.05H33.2395C33.4995 30.89 33.8795 31.67 34.3795 32.39C35.4395 33.93 36.7595 34.7 38.3395 34.7C39.1795 34.7 39.8095 34.5 40.2295 34.1C40.6695 33.68 40.8895 33.08 40.8895 32.3C40.8895 31.64 40.5895 31.09 39.9895 30.65C39.4095 30.19 38.4895 29.63 37.2295 28.97C36.1495 28.43 35.2695 27.95 34.5895 27.53C33.9295 27.09 33.3595 26.55 32.8795 25.91C32.4195 25.25 32.1895 24.48 32.1895 23.6C32.1895 22.4 32.6995 21.43 33.7195 20.69C34.7595 19.93 36.3495 19.55 38.4895 19.55C39.5495 19.55 40.5295 19.83 41.4295 20.39C41.8695 20.65 42.2495 20.92 42.5695 21.2C42.8295 20.84 43.1795 20.5 43.6195 20.18C43.9595 19.98 44.1595 19.87 44.2195 19.85H44.9695V24.95H43.7695C43.4695 24.09 43.0995 23.32 42.6595 22.64C41.6595 21.08 40.4695 20.3 39.0895 20.3C38.5495 20.3 38.0895 20.5 37.7095 20.9C37.3295 21.3 37.1395 21.8 37.1395 22.4C37.1395 23.16 37.4595 23.8 38.0995 24.32C38.7395 24.82 39.7095 25.4 41.0095 26.06C42.0695 26.6 42.9095 27.08 43.5295 27.5C44.1695 27.9 44.7095 28.4 45.1495 29C45.6095 29.6 45.8395 30.3 45.8395 31.1C45.8395 34 43.5395 35.45 38.9395 35.45ZM48.0906 34.25L56.6406 20.75H51.2406C51.2406 21.85 50.9106 22.96 50.2506 24.08C49.9906 24.5 49.6706 24.89 49.2906 25.25H48.3906V20H62.0406V20.75L53.4906 34.25H59.1906C59.1906 33.11 59.5106 32 60.1506 30.92C60.4306 30.46 60.7606 30.07 61.1406 29.75H62.0406V35H48.0906V34.25Z" fill="#063400"/>
<path d="M52.3 99.95C49.74 99.95 47.75 99.25 46.33 97.85C44.91 96.43 44.2 94.48 44.2 92C44.2 89.52 44.91 87.58 46.33 86.18C47.75 84.76 49.74 84.05 52.3 84.05C54.14 84.05 55.52 84.37 56.44 85.01C57.38 85.65 57.85 86.43 57.85 87.35C57.85 88.03 57.64 88.58 57.22 89C56.82 89.4 56.28 89.6 55.6 89.6C55.32 89.6 55.04 89.58 54.76 89.54L54.4 89.45V84.95L53.98 84.8C53.68 84.7 53.32 84.65 52.9 84.65C51.76 84.65 50.87 85.19 50.23 86.27C49.61 87.35 49.3 89.26 49.3 92C49.3 94.66 49.61 96.53 50.23 97.61C50.87 98.67 51.76 99.2 52.9 99.2C53.68 99.2 54.4 99.02 55.06 98.66C55.74 98.28 56.27 97.79 56.65 97.19C57.05 96.57 57.25 95.94 57.25 95.3H58C58 96.1 57.76 96.86 57.28 97.58C56.8 98.3 56.13 98.88 55.27 99.32C54.41 99.74 53.42 99.95 52.3 99.95ZM60.1082 99.05L61.9082 98.6V79.4L60.1082 78.95V78.5H64.0082C65.8082 78.5 66.7082 79.4 66.7082 81.2V86C67.0082 85.6 67.3182 85.28 67.6382 85.04C68.4982 84.38 69.4882 84.05 70.6082 84.05C71.7282 84.05 72.7282 84.29 73.6082 84.77C74.5082 85.23 75.2082 85.84 75.7082 86.6C76.2082 87.36 76.4582 88.16 76.4582 89V98.6L78.2582 99.05V99.5H74.3582C72.5582 99.5 71.6582 98.6 71.6582 96.8V89C71.6582 87.74 71.4282 86.78 70.9682 86.12C70.5282 85.44 70.0082 85.1 69.4082 85.1C68.6482 85.1 67.9682 85.5 67.3682 86.3C67.1082 86.64 66.8882 87.04 66.7082 87.5V98.6L68.5082 99.05V99.5H60.1082V99.05ZM88.1594 99.95C85.5994 99.95 83.6094 99.25 82.1894 97.85C80.7694 96.43 80.0594 94.48 80.0594 92C80.0594 89.52 80.7694 87.58 82.1894 86.18C83.6094 84.76 85.5994 84.05 88.1594 84.05C89.9994 84.05 91.3794 84.37 92.2994 85.01C93.2394 85.65 93.7094 86.43 93.7094 87.35C93.7094 88.03 93.4994 88.58 93.0794 89C92.6794 89.4 92.1394 89.6 91.4594 89.6C91.1794 89.6 90.8994 89.58 90.6194 89.54L90.2594 89.45V84.95L89.8394 84.8C89.5394 84.7 89.1794 84.65 88.7594 84.65C87.6194 84.65 86.7294 85.19 86.0894 86.27C85.4694 87.35 85.1594 89.26 85.1594 92C85.1594 94.66 85.4694 96.53 86.0894 97.61C86.7294 98.67 87.6194 99.2 88.7594 99.2C89.5394 99.2 90.2594 99.02 90.9194 98.66C91.5994 98.28 92.1294 97.79 92.5094 97.19C92.9094 96.57 93.1094 95.94 93.1094 95.3H93.8594C93.8594 96.1 93.6194 96.86 93.1394 97.58C92.6594 98.3 91.9894 98.88 91.1294 99.32C90.2694 99.74 89.2794 99.95 88.1594 99.95ZM104.068 99.95C101.508 99.95 99.5176 99.25 98.0976 97.85C96.6776 96.43 95.9676 94.48 95.9676 92C95.9676 90.38 96.2776 88.97 96.8976 87.77C97.5176 86.57 98.3776 85.65 99.4776 85.01C100.598 84.37 101.878 84.05 103.318 84.05C104.758 84.05 106.018 84.32 107.098 84.86C108.198 85.4 109.038 86.13 109.618 87.05C110.218 87.95 110.518 88.95 110.518 90.05C110.518 90.55 110.468 90.98 110.368 91.34L110.218 91.85C109.358 92.03 108.428 92.18 107.428 92.3C105.328 92.6 103.208 92.75 101.068 92.75C101.068 95.07 101.388 96.73 102.028 97.73C102.668 98.71 103.548 99.2 104.668 99.2C105.448 99.2 106.168 99.02 106.828 98.66C107.508 98.28 108.038 97.79 108.418 97.19C108.818 96.57 109.018 95.94 109.018 95.3H109.768C109.768 96.1 109.528 96.86 109.048 97.58C108.568 98.3 107.898 98.88 107.038 99.32C106.178 99.74 105.188 99.95 104.068 99.95ZM101.068 92C102.348 92 103.388 91.95 104.188 91.85C104.528 91.83 104.888 91.78 105.268 91.7C105.288 91.6 105.338 91.38 105.418 91.04C105.518 90.54 105.568 90.01 105.568 89.45C105.568 87.79 105.348 86.58 104.908 85.82C104.468 85.04 103.938 84.65 103.318 84.65C101.818 84.65 101.068 87.1 101.068 92ZM119.805 99.95C118.565 99.95 117.455 99.68 116.475 99.14C115.995 98.88 115.605 98.6 115.305 98.3C114.985 98.74 114.635 99.08 114.255 99.32C114.075 99.44 113.875 99.55 113.655 99.65H112.905V94.55H114.105C114.365 95.39 114.745 96.17 115.245 96.89C116.305 98.43 117.625 99.2 119.205 99.2C120.045 99.2 120.675 99 121.095 98.6C121.535 98.18 121.755 97.58 121.755 96.8C121.755 96.14 121.455 95.59 120.855 95.15C120.275 94.69 119.355 94.13 118.095 93.47C117.015 92.93 116.135 92.45 115.455 92.03C114.795 91.59 114.225 91.05 113.745 90.41C113.285 89.75 113.055 88.98 113.055 88.1C113.055 86.9 113.565 85.93 114.585 85.19C115.625 84.43 117.215 84.05 119.355 84.05C120.415 84.05 121.395 84.33 122.295 84.89C122.735 85.15 123.115 85.42 123.435 85.7C123.695 85.34 124.045 85 124.485 84.68C124.825 84.48 125.025 84.37 125.085 84.35H125.835V89.45H124.635C124.335 88.59 123.965 87.82 123.525 87.14C122.525 85.58 121.335 84.8 119.955 84.8C119.415 84.8 118.955 85 118.575 85.4C118.195 85.8 118.005 86.3 118.005 86.9C118.005 87.66 118.325 88.3 118.965 88.82C119.605 89.32 120.575 89.9 121.875 90.56C122.935 91.1 123.775 91.58 124.395 92C125.035 92.4 125.575 92.9 126.015 93.5C126.475 94.1 126.705 94.8 126.705 95.6C126.705 98.5 124.405 99.95 119.805 99.95ZM128.956 98.75L137.506 85.25H132.106C132.106 86.35 131.776 87.46 131.116 88.58C130.856 89 130.536 89.39 130.156 89.75H129.256V84.5H142.906V85.25L134.356 98.75H140.056C140.056 97.61 140.376 96.5 141.016 95.42C141.296 94.96 141.626 94.57 142.006 94.25H142.906V99.5H128.956V98.75Z" fill="#063400"/>
<mask id="path-4-inside-1_26_2" fill="white">
<path d="M50 59.7822C50 73.9702 61.5013 85.4716 75.6865 85.4716C81.121 85.4716 86.1614 83.7849 90.3104 80.9047C92.8773 79.1262 95.1029 76.8894 96.8717 74.3156C97.8466 72.8992 98.6837 71.3783 99.3619 69.7738C100.659 66.7028 101.376 63.3268 101.376 59.7822C101.376 59.4897 101.37 59.1986 101.362 58.9076C101.221 54.7432 100.092 50.831 98.199 47.3992C96.3216 43.9926 94.8188 40.3937 93.6363 36.689C90.5848 27.1263 91.5277 10.7155 77.5068 9.4258C76.9261 9.37287 76.3202 9.34502 75.6865 9.34502C75.0542 9.34502 74.4484 9.3701 73.8676 9.42023C59.2353 10.6612 60.7952 27.111 57.7395 36.689C56.5557 40.3937 55.0543 43.9926 53.1768 47.3992C51.1518 51.0705 50 55.2934 50 59.7822"/>
</mask>
<path d="M90.3104 80.9047L89.7409 80.0827L89.7402 80.0832L90.3104 80.9047ZM96.8717 74.3156L96.0479 73.7486L96.0475 73.7492L96.8717 74.3156ZM99.3619 69.7738L100.283 70.1632L100.283 70.1628L99.3619 69.7738ZM101.362 58.9076L102.362 58.8789L102.361 58.8738L101.362 58.9076ZM98.199 47.3992L97.3232 47.8819L97.3233 47.8822L98.199 47.3992ZM93.6363 36.689L92.6836 36.993L92.6837 36.993L93.6363 36.689ZM77.5068 9.4258L77.5984 8.43L77.5976 8.42992L77.5068 9.4258ZM73.8676 9.42023L73.9521 10.4167L73.9536 10.4165L73.8676 9.42023ZM57.7395 36.689L58.692 36.9933L58.6922 36.9929L57.7395 36.689ZM53.1768 47.3992L54.0525 47.8822L54.0526 47.8819L53.1768 47.3992ZM49 59.7822C49 74.5224 60.949 86.4716 75.6865 86.4716V84.4716C62.0537 84.4716 51 73.418 51 59.7822H49ZM75.6865 86.4716C81.3311 86.4716 86.5694 84.719 90.8807 81.7262L89.7402 80.0832C85.7534 82.8508 80.911 84.4716 75.6865 84.4716V86.4716ZM90.88 81.7267C93.5468 79.8788 95.8586 77.5554 97.6958 74.882L96.0475 73.7492C94.3472 76.2234 92.2077 78.3735 89.7409 80.0827L90.88 81.7267ZM97.6954 74.8826C98.7083 73.411 99.5781 71.8307 100.283 70.1632L98.4409 69.3844C97.7892 70.9259 96.9849 72.3873 96.0479 73.7486L97.6954 74.8826ZM100.283 70.1628C101.631 66.9709 102.376 63.4628 102.376 59.7822H100.376C100.376 63.1907 99.6863 66.4347 98.4407 69.3848L100.283 70.1628ZM102.376 59.7822C102.376 59.4773 102.37 59.1761 102.362 58.8789L100.362 58.9362C100.371 59.2212 100.376 59.5022 100.376 59.7822H102.376ZM102.361 58.8738C102.215 54.5485 101.042 50.4828 99.0746 46.9163L97.3233 47.8822C99.1418 51.1792 100.227 54.9379 100.362 58.9413L102.361 58.8738ZM99.0748 46.9166C97.2321 43.5729 95.7539 40.0348 94.589 36.3849L92.6837 36.993C93.8836 40.7526 95.411 44.4122 97.3232 47.8819L99.0748 46.9166ZM94.589 36.3849C93.8486 34.0648 93.3473 31.3173 92.7823 28.3869C92.2234 25.4881 91.6056 22.4333 90.6296 19.6266C89.6529 16.8177 88.2944 14.1857 86.2085 12.1665C84.1036 10.1288 81.3162 8.77197 77.5984 8.43L77.4152 10.4216C80.7079 10.7245 83.0605 11.9026 84.8175 13.6035C86.5936 15.3229 87.8189 17.6331 88.7406 20.2835C89.6629 22.936 90.2578 25.8575 90.8185 28.7655C91.3731 31.6419 91.8983 34.5318 92.6836 36.993L94.589 36.3849ZM77.5976 8.42992C76.9857 8.37416 76.3496 8.34502 75.6865 8.34502V10.345C76.2909 10.345 76.8664 10.3716 77.4161 10.4217L77.5976 8.42992ZM75.6865 8.34502C75.0278 8.34502 74.3932 8.37114 73.7816 8.42394L73.9536 10.4165C74.5035 10.3691 75.0806 10.345 75.6865 10.345V8.34502ZM73.7831 8.42381C69.9215 8.75131 67.0548 10.0947 64.9145 12.1335C62.7926 14.1549 61.4521 16.7956 60.5136 19.6121C59.5764 22.4246 59.0169 25.4878 58.5061 28.3886C57.9894 31.3231 57.5255 34.0695 56.7868 36.385L58.6922 36.9929C59.4813 34.5194 59.9683 31.6178 60.4758 28.7354C60.9893 25.8193 61.5272 22.8966 62.411 20.2443C63.2935 17.596 64.4976 15.2929 66.294 13.5816C68.0721 11.8878 70.4975 10.7096 73.9521 10.4167L73.7831 8.42381ZM56.7869 36.3846C55.6205 40.0349 54.1436 43.5731 52.301 46.9166L54.0526 47.8819C55.9649 44.412 57.4908 40.7524 58.692 36.9933L56.7869 36.3846ZM52.3012 46.9162C50.1965 50.7319 49 55.1204 49 59.7822H51C51 55.4663 52.107 51.4092 54.0525 47.8822L52.3012 46.9162Z" fill="#063400" mask="url(#path-4-inside-1_26_2)"/>
<mask id="path-6-inside-2_26_2" fill="white">
<path d="M50.0008 59.7518C50.0049 55.2618 51.1627 51.0413 53.1941 47.3718C55.0744 43.9676 56.5806 40.3702 57.7684 36.6667C59.4242 31.5006 59.7385 24.333 61.9767 18.6335L63.3835 18.4199C63.3835 18.4199 65.0271 35.0218 62.4297 41.2805C59.8337 47.5392 52.5777 83.4028 90.4904 79.3823C91.2007 79.3075 91.8796 79.2408 92.5259 79.1836C88.0087 83.1076 82.1079 85.4804 75.6546 85.4723C61.4705 85.4546 49.9831 73.9386 50.0008 59.7518"/>
</mask>
<path d="M50.0008 59.7518C50.0049 55.2618 51.1627 51.0413 53.1941 47.3718C55.0744 43.9676 56.5806 40.3702 57.7684 36.6667C59.4242 31.5006 59.7385 24.333 61.9767 18.6335L63.3835 18.4199C63.3835 18.4199 65.0271 35.0218 62.4297 41.2805C59.8337 47.5392 52.5777 83.4028 90.4904 79.3823C91.2007 79.3075 91.8796 79.2408 92.5259 79.1836C88.0087 83.1076 82.1079 85.4804 75.6546 85.4723C61.4705 85.4546 49.9831 73.9386 50.0008 59.7518" fill="#EBF073"/>
<path d="M53.1941 47.3718L54.069 47.8561L54.0694 47.8553L53.1941 47.3718ZM57.7684 36.6667L58.7206 36.9721L58.7207 36.9719L57.7684 36.6667ZM61.9767 18.6335L61.8265 17.6449L61.2566 17.7314L61.0459 18.268L61.9767 18.6335ZM63.3835 18.4199L64.3786 18.3214L64.2749 17.2731L63.2334 17.4312L63.3835 18.4199ZM62.4297 41.2805L61.5061 40.8972L61.506 40.8973L62.4297 41.2805ZM90.4904 79.3823L90.3857 78.3878L90.385 78.3879L90.4904 79.3823ZM92.5259 79.1836L93.1817 79.9386L95.5102 77.9159L92.4378 78.1875L92.5259 79.1836ZM75.6546 85.4723L75.6559 84.4723L75.6559 84.4723L75.6546 85.4723ZM51.0008 59.7527C51.0047 55.4361 52.1175 51.3814 54.069 47.8561L52.3192 46.8875C50.208 50.7012 49.005 55.0876 49.0008 59.7509L51.0008 59.7527ZM54.0694 47.8553C55.9846 44.3881 57.5153 40.7301 58.7206 36.9721L56.8162 36.3613C55.6458 40.0104 54.1643 43.5471 52.3187 46.8883L54.0694 47.8553ZM58.7207 36.9719C59.5744 34.3083 60.0801 31.1376 60.6384 28.0268C61.2042 24.8739 61.8286 21.7464 62.9075 18.9991L61.0459 18.268C59.8866 21.2201 59.2347 24.5262 58.6699 27.6735C58.0975 30.8629 57.6182 33.859 56.8161 36.3615L58.7207 36.9719ZM62.1268 19.6222L63.5336 19.4086L63.2334 17.4312L61.8265 17.6449L62.1268 19.6222ZM63.3835 18.4199C62.3884 18.5184 62.3884 18.5184 62.3884 18.5184C62.3884 18.5185 62.3884 18.5186 62.3884 18.5188C62.3885 18.5192 62.3885 18.5198 62.3886 18.5207C62.3888 18.5225 62.389 18.5252 62.3894 18.529C62.3901 18.5365 62.3913 18.5479 62.3927 18.5632C62.3956 18.5937 62.4 18.6397 62.4056 18.7001C62.4168 18.821 62.433 19.0001 62.4527 19.2307C62.4922 19.692 62.5458 20.3593 62.6021 21.1802C62.7148 22.8228 62.8381 25.0759 62.8808 27.5207C62.9236 29.968 62.8853 32.5924 62.6783 34.9818C62.4694 37.3922 62.0949 39.4784 61.5061 40.8972L63.3534 41.6638C64.0633 39.9532 64.4574 37.6171 64.6708 35.1545C64.886 32.6707 64.9239 29.9711 64.8805 27.4857C64.837 24.9977 64.7117 22.7091 64.5974 21.0433C64.5402 20.2099 64.4857 19.5314 64.4454 19.0603C64.4253 18.8247 64.4087 18.641 64.3971 18.5157C64.3913 18.453 64.3867 18.4049 64.3836 18.3723C64.382 18.3559 64.3808 18.3435 64.38 18.335C64.3796 18.3307 64.3792 18.3274 64.379 18.3252C64.3789 18.324 64.3788 18.3232 64.3788 18.3225C64.3787 18.3222 64.3787 18.3219 64.3787 18.3218C64.3787 18.3216 64.3786 18.3214 63.3835 18.4199ZM61.506 40.8973C60.812 42.5706 59.8538 46.0828 59.3934 50.3319C58.9321 54.5883 58.9603 59.6703 60.3067 64.4569C61.6572 69.2583 64.3464 73.7957 69.2148 76.8521C74.0725 79.9018 80.9728 81.3972 90.5959 80.3767L90.385 78.3879C81.0517 79.3776 74.6418 77.8978 70.2782 75.1582C65.9253 72.4254 63.482 68.3595 62.232 63.9153C60.9777 59.4562 60.9371 54.65 61.3817 50.5474C61.8271 46.4374 62.7495 43.1197 63.3534 41.6636L61.506 40.8973ZM90.5952 80.3768C91.3011 80.3024 91.9743 80.2363 92.614 80.1798L92.4378 78.1875C91.7849 78.2453 91.1003 78.3125 90.3857 78.3878L90.5952 80.3768ZM91.8701 78.4287C87.5282 82.2004 81.8586 84.4801 75.6559 84.4723L75.6534 86.4723C82.3572 86.4807 88.4893 84.0147 93.1817 79.9386L91.8701 78.4287ZM75.6559 84.4723C62.0241 84.4553 50.9838 73.3876 51.0008 59.753L49.0008 59.7505C48.9824 74.4896 60.9169 86.4539 75.6534 86.4723L75.6559 84.4723Z" fill="#063400" mask="url(#path-6-inside-2_26_2)"/>
<path d="M88.2347 77.9116L88.2344 77.9117C84.5429 80.4739 80.2048 81.8289 75.6887 81.8289C63.5336 81.8289 53.6447 71.9386 53.6447 59.7835C53.6447 56.0655 54.5864 52.3909 56.3693 49.1582L56.3693 49.1581C58.287 45.6787 59.9147 41.8551 61.2107 37.7968L61.2107 37.7968C62.0078 35.2998 62.4895 32.5553 62.9916 29.6941L62.9931 29.6855C62.9931 29.6855 62.9932 29.6855 62.9932 29.6854C63.7393 25.4396 64.4951 21.1653 66.22 18.0281L66.2201 18.028C67.0887 16.4468 68.1291 15.2922 69.4106 14.4896C70.6939 13.6857 72.2504 13.2152 74.1803 13.0512L74.1815 13.0511C74.6526 13.0099 75.1599 12.9898 75.6887 12.9898C76.2015 12.9898 76.7011 13.0125 77.1724 13.0563L77.1731 13.0564C79.0153 13.2251 80.5137 13.7052 81.7657 14.5262C83.0176 15.3472 84.0541 16.5294 84.9412 18.1496L85.3798 17.9095L84.9412 18.1496C86.7033 21.3671 87.5392 25.6965 88.3636 29.9897C88.8924 32.7505 89.399 35.3937 90.1666 37.7968C91.4627 41.8566 93.0917 45.6788 95.0079 49.1579L95.0081 49.1582C96.6907 52.2093 97.6023 55.5303 97.7206 59.0244L97.7206 59.025C97.73 59.2938 97.734 59.542 97.734 59.7835C97.734 62.7582 97.1525 65.6421 96.0058 68.3557L96.0057 68.3559C95.4312 69.717 94.7128 71.0278 93.8706 72.2542C92.3446 74.4733 90.4497 76.3762 88.2347 77.9116Z" fill="#EDED77" stroke="#063400"/>
<mask id="path-9-inside-3_26_2" fill="white">
<path d="M53.1432 59.7836C53.1432 55.9813 54.1069 52.2233 55.9308 48.9157C57.8312 45.4668 59.4468 41.674 60.733 37.6445C61.5193 35.1822 61.9964 32.4699 62.5004 29.5977C62.78 27.9983 63.0663 26.3774 63.4077 24.8049C63.6254 30.1757 63.5824 37.5572 62.0367 41.2801C59.5301 47.3243 52.6795 80.9684 86.3438 79.6566C83.0831 81.4106 79.4448 82.3286 75.6868 82.3286C63.2558 82.3286 53.1432 72.2146 53.1432 59.7836"/>
</mask>
<path d="M53.1432 59.7836C53.1432 55.9813 54.1069 52.2233 55.9308 48.9157C57.8312 45.4668 59.4468 41.674 60.733 37.6445C61.5193 35.1822 61.9964 32.4699 62.5004 29.5977C62.78 27.9983 63.0663 26.3774 63.4077 24.8049C63.6254 30.1757 63.5824 37.5572 62.0367 41.2801C59.5301 47.3243 52.6795 80.9684 86.3438 79.6566C83.0831 81.4106 79.4448 82.3286 75.6868 82.3286C63.2558 82.3286 53.1432 72.2146 53.1432 59.7836" fill="#DBD871"/>
<path d="M55.9308 48.9157L56.8065 49.3985L56.8066 49.3983L55.9308 48.9157ZM60.733 37.6445L59.7804 37.3403L59.7804 37.3404L60.733 37.6445ZM62.5004 29.5977L63.4854 29.7706L63.4855 29.7699L62.5004 29.5977ZM63.4077 24.8049L64.4068 24.7644L62.4304 24.5927L63.4077 24.8049ZM62.0367 41.2801L61.1132 40.8967L61.113 40.8971L62.0367 41.2801ZM86.3438 79.6566L86.8175 80.5373L86.3048 78.6573L86.3438 79.6566ZM54.1432 59.7836C54.1432 56.1489 55.0647 52.5573 56.8065 49.3985L55.0551 48.4328C53.1491 51.8894 52.1432 55.8136 52.1432 59.7836H54.1432ZM56.8066 49.3983C58.7407 45.8885 60.3811 42.0353 61.6857 37.9486L59.7804 37.3404C58.5124 41.3126 56.9218 45.0452 55.0549 48.433L56.8066 49.3983ZM61.6856 37.9487C62.4963 35.4099 62.984 32.6278 63.4854 29.7706L61.5155 29.4249C61.0088 32.3121 60.5422 34.9545 59.7804 37.3403L61.6856 37.9487ZM63.4855 29.7699C63.7654 28.1686 64.0484 26.5669 64.3849 25.017L62.4304 24.5927C62.0841 26.188 61.7946 27.828 61.5154 29.4256L63.4855 29.7699ZM62.4085 24.8454C62.5167 27.5138 62.5592 30.6654 62.3852 33.6013C62.2094 36.5675 61.8176 39.2001 61.1132 40.8967L62.9603 41.6636C63.8016 39.6372 64.204 36.7176 64.3817 33.7196C64.5612 30.6913 64.5164 27.4668 64.4068 24.7644L62.4085 24.8454ZM61.113 40.8971C60.4424 42.5142 59.5265 45.8445 59.05 49.894C58.5726 53.9515 58.5266 58.8096 59.6543 63.4624C60.7842 68.1241 63.105 72.6229 67.3881 75.8613C71.6718 79.1001 77.802 80.9902 86.3827 80.6558L86.3048 78.6573C78.0534 78.9789 72.4159 77.1554 68.5943 74.266C64.7722 71.3761 62.6502 67.3322 61.598 62.9913C60.5437 58.6415 60.5763 54.0373 61.0363 50.1277C61.4973 46.2099 62.3778 43.0682 62.9605 41.6632L61.113 40.8971ZM85.87 78.7759C82.7559 80.4511 79.2804 81.3286 75.6868 81.3286V83.3286C79.6091 83.3286 83.4103 82.37 86.8175 80.5373L85.87 78.7759ZM75.6868 81.3286C63.8081 81.3286 54.1432 71.6624 54.1432 59.7836H52.1432C52.1432 72.7668 62.7034 83.3286 75.6868 83.3286V81.3286Z" fill="#063400" mask="url(#path-9-inside-3_26_2)"/>
<mask id="path-11-inside-4_26_2" fill="white">
<path d="M96.8726 74.3165C100.928 73.972 104.421 72.7159 107.363 71.0577C111.829 68.5416 115.028 65.1021 116.996 62.5244C118.569 60.468 119.359 58.9592 119.385 58.9081C113.995 60.8439 106.877 57.6533 101.363 58.9081C101.372 59.1989 101.377 59.4896 101.377 59.783C101.377 61.3836 101.23 62.9501 100.95 64.4695C100.611 66.315 100.074 68.0897 99.3625 69.7741C98.684 71.3786 97.847 72.8993 96.8726 74.3165"/>
</mask>
<path d="M107.363 71.0577L106.872 70.1864L106.872 70.1866L107.363 71.0577ZM116.996 62.5244L116.202 61.9168L116.201 61.9175L116.996 62.5244ZM119.385 58.9081L120.275 59.3644L121.431 57.1108L119.047 57.9669L119.385 58.9081ZM101.363 58.9081L101.141 57.933L100.337 58.1159L100.363 58.9396L101.363 58.9081ZM100.95 64.4695L99.9665 64.288L99.9664 64.2887L100.95 64.4695ZM99.3625 69.7741L100.284 70.1636L100.284 70.1631L99.3625 69.7741ZM96.9572 75.3129C101.173 74.9548 104.803 73.6483 107.854 71.9288L106.872 70.1866C104.038 71.7835 100.683 72.9892 96.7879 73.3201L96.9572 75.3129ZM107.854 71.929C112.476 69.3249 115.771 65.7758 117.791 63.1314L116.201 61.9175C114.284 64.4284 111.182 67.7583 106.872 70.1864L107.854 71.929ZM117.79 63.132C119.406 61.0198 120.227 59.4584 120.275 59.3644L118.495 58.4518C118.496 58.45 118.449 58.5416 118.352 58.713C118.256 58.8828 118.112 59.1289 117.921 59.4372C117.538 60.054 116.966 60.9179 116.202 61.9168L117.79 63.132ZM119.047 57.9669C116.613 58.8413 113.724 58.5748 110.546 58.1714C107.479 57.7822 104.111 57.257 101.141 57.933L101.584 59.8832C104.128 59.3043 107.076 59.7471 110.295 60.1555C113.402 60.5499 116.768 60.9107 119.723 59.8492L119.047 57.9669ZM100.363 58.9396C100.372 59.2214 100.377 59.5016 100.377 59.783H102.377C102.377 59.4777 102.371 59.1763 102.362 58.8766L100.363 58.9396ZM100.377 59.783C100.377 61.3224 100.236 62.8282 99.9665 64.288L101.933 64.6509C102.225 63.072 102.377 61.4448 102.377 59.783H100.377ZM99.9664 64.2887C99.6405 66.0616 99.1247 67.7666 98.4412 69.3851L100.284 70.1631C101.023 68.4129 101.581 66.5684 101.933 64.6502L99.9664 64.2887ZM98.4414 69.3846C97.7896 70.9262 96.9853 72.3876 96.0486 73.7499L97.6966 74.8831C98.7088 73.411 99.5784 71.831 100.284 70.1636L98.4414 69.3846Z" fill="#063400" mask="url(#path-11-inside-4_26_2)"/>
<mask id="path-13-inside-5_26_2" fill="white">
<path d="M96.8726 74.3165C100.928 73.972 104.421 72.7159 107.363 71.0577C111.829 68.5416 115.028 65.1021 116.996 62.5244C116.305 62.8165 115.478 63.2631 114.496 63.8931C104.202 70.4879 101.86 69.6248 101.86 69.6248C102.599 67.2213 102.353 63.03 102.353 63.03L100.95 64.4695C100.611 66.315 100.074 68.0897 99.3625 69.7741C98.684 71.3786 97.8471 72.8993 96.8726 74.3165"/>
</mask>
<path d="M107.363 71.0577L106.872 70.1864L106.872 70.1866L107.363 71.0577ZM116.996 62.5244L117.791 63.1314L120.077 60.1376L116.607 61.6032L116.996 62.5244ZM114.496 63.8931L115.035 64.7352L115.036 64.7349L114.496 63.8931ZM101.86 69.6248L100.904 69.331L100.626 70.2358L101.514 70.5631L101.86 69.6248ZM102.353 63.03L103.351 62.9713L103.218 60.7092L101.637 62.3321L102.353 63.03ZM100.95 64.4695L100.234 63.7715L100.021 63.9894L99.9664 64.2887L100.95 64.4695ZM99.3625 69.7741L100.284 70.1636L100.284 70.1631L99.3625 69.7741ZM96.9572 75.3129C101.173 74.9548 104.803 73.6483 107.854 71.9288L106.872 70.1866C104.039 71.7835 100.683 72.9892 96.7879 73.3201L96.9572 75.3129ZM107.854 71.929C112.476 69.3249 115.771 65.7758 117.791 63.1314L116.201 61.9175C114.284 64.4284 111.182 67.7583 106.872 70.1864L107.854 71.929ZM116.607 61.6032C115.847 61.9244 114.968 62.4021 113.956 63.0514L115.036 64.7349C115.988 64.1242 116.763 63.7086 117.385 63.4456L116.607 61.6032ZM113.956 63.0511C108.846 66.3249 105.768 67.7091 104.009 68.281C103.132 68.5661 102.603 68.6423 102.329 68.6583C102.193 68.6662 102.123 68.6591 102.107 68.657C102.099 68.656 102.105 68.6563 102.122 68.6604C102.131 68.6625 102.142 68.6655 102.156 68.6697C102.163 68.6718 102.171 68.6743 102.179 68.6771C102.183 68.6784 102.188 68.6799 102.192 68.6815C102.194 68.6823 102.197 68.6831 102.199 68.6839C102.2 68.6843 102.202 68.685 102.203 68.6852C102.204 68.6858 102.206 68.6865 101.86 69.6248C101.514 70.5631 101.516 70.5637 101.518 70.5644C101.519 70.5646 101.52 70.5653 101.522 70.5657C101.524 70.5666 101.527 70.5675 101.529 70.5684C101.534 70.5702 101.539 70.5719 101.545 70.5737C101.555 70.5773 101.567 70.5809 101.578 70.5844C101.602 70.5915 101.628 70.5986 101.656 70.6054C101.713 70.6189 101.778 70.6313 101.855 70.641C102.007 70.6604 102.201 70.6691 102.445 70.6549C102.931 70.6266 103.632 70.5065 104.627 70.183C106.612 69.5378 109.851 68.0562 115.035 64.7352L113.956 63.0511ZM102.816 69.9186C103.229 68.5759 103.352 66.8089 103.383 65.4489C103.399 64.7545 103.391 64.1384 103.379 63.6956C103.373 63.474 103.366 63.295 103.361 63.1705C103.358 63.1082 103.356 63.0595 103.354 63.0258C103.353 63.009 103.352 62.9959 103.352 62.9868C103.352 62.9822 103.351 62.9786 103.351 62.976C103.351 62.9748 103.351 62.9737 103.351 62.9729C103.351 62.9725 103.351 62.9722 103.351 62.9719C103.351 62.9718 103.351 62.9717 103.351 62.9716C103.351 62.9715 103.351 62.9713 102.353 63.03C101.354 63.0886 101.354 63.0886 101.354 63.0885C101.354 63.0885 101.354 63.0884 101.354 63.0884C101.354 63.0884 101.354 63.0885 101.354 63.0886C101.354 63.0888 101.355 63.0893 101.355 63.09C101.355 63.0915 101.355 63.094 101.355 63.0974C101.355 63.1043 101.356 63.115 101.357 63.1295C101.358 63.1584 101.36 63.2021 101.363 63.2591C101.368 63.3732 101.374 63.5404 101.38 63.7492C101.391 64.1675 101.399 64.7495 101.384 65.4033C101.353 66.7398 101.23 68.2702 100.904 69.331L102.816 69.9186ZM101.637 62.3321L100.234 63.7715L101.666 65.1674L103.069 63.7279L101.637 62.3321ZM99.9664 64.2887C99.6405 66.0616 99.1247 67.7666 98.4413 69.3851L100.284 70.1631C101.023 68.4129 101.581 66.5684 101.933 64.6502L99.9664 64.2887ZM98.4415 69.3846C97.7896 70.9262 96.9853 72.3876 96.0486 73.7499L97.6966 74.8831C98.7088 73.411 99.5784 71.831 100.284 70.1636L98.4415 69.3846Z" fill="#063400" mask="url(#path-13-inside-5_26_2)"/>
<mask id="path-15-inside-6_26_2" fill="white">
<path d="M90.3118 80.9047C96.6172 83.8321 102.637 83.7338 107.583 82.5655C114.952 80.8287 119.938 76.7212 119.938 76.7212C115.87 76.4815 112.016 73.5109 108.129 71.4506L106.302 71.6248C103.592 72.9988 100.451 74.0126 96.8726 74.3164C95.1043 76.8902 92.8777 79.126 90.3118 80.9047"/>
</mask>
<path d="M107.583 82.5655L107.353 81.5922L107.353 81.5923L107.583 82.5655ZM119.938 76.7212L120.574 77.4931L122.541 75.8728L119.997 75.7229L119.938 76.7212ZM108.129 71.4506L108.597 70.567L108.332 70.4267L108.034 70.4551L108.129 71.4506ZM106.302 71.6248L106.207 70.6293L106.018 70.6473L105.85 70.7329L106.302 71.6248ZM96.8726 74.3164L96.788 73.32L96.3163 73.3601L96.0483 73.7502L96.8726 74.3164ZM89.8907 81.8117C96.4413 84.8529 102.698 84.7469 107.813 83.5387L107.353 81.5923C102.576 82.7208 96.7931 82.8112 90.7329 79.9977L89.8907 81.8117ZM107.812 83.5388C111.615 82.6425 114.795 81.1371 117.021 79.8594C118.136 79.2197 119.016 78.6344 119.621 78.2065C119.924 77.9924 120.158 77.8174 120.318 77.6943C120.398 77.6328 120.46 77.5842 120.503 77.5501C120.524 77.5331 120.541 77.5197 120.553 77.5101C120.559 77.5053 120.564 77.5015 120.567 77.4986C120.569 77.4972 120.57 77.496 120.571 77.4951C120.572 77.4946 120.572 77.4942 120.573 77.4939C120.573 77.4937 120.573 77.4935 120.573 77.4934C120.574 77.4932 120.574 77.4931 119.938 76.7212C119.302 75.9494 119.302 75.9492 119.303 75.9491C119.303 75.9491 119.303 75.949 119.303 75.9489C119.303 75.9488 119.303 75.9488 119.303 75.9488C119.303 75.9489 119.302 75.9492 119.302 75.9498C119.3 75.9509 119.298 75.953 119.294 75.956C119.287 75.9621 119.274 75.972 119.257 75.9854C119.223 76.0124 119.171 76.0537 119.1 76.1079C118.959 76.2162 118.746 76.3757 118.466 76.5738C117.906 76.9703 117.079 77.5205 116.026 78.1247C113.917 79.335 110.919 80.7518 107.353 81.5922L107.812 83.5388ZM119.997 75.7229C118.177 75.6157 116.348 74.8924 114.431 73.8837C113.477 73.3815 112.524 72.8217 111.549 72.2479C110.582 71.6784 109.592 71.0945 108.597 70.567L107.661 72.3342C108.609 72.8369 109.559 73.3969 110.535 73.9714C111.503 74.5415 112.497 75.1256 113.5 75.6536C115.498 76.7051 117.631 77.587 119.879 77.7195L119.997 75.7229ZM108.034 70.4551L106.207 70.6293L106.397 72.6203L108.224 72.4461L108.034 70.4551ZM105.85 70.7329C103.242 72.0548 100.225 73.0281 96.788 73.32L96.9572 75.3129C100.676 74.997 103.941 73.9427 106.754 72.5167L105.85 70.7329ZM96.0483 73.7502C94.3488 76.224 92.2084 78.3732 89.7421 80.0828L90.8815 81.7265C93.547 79.8788 95.8599 77.5564 97.6968 74.8827L96.0483 73.7502Z" fill="#063400" mask="url(#path-15-inside-6_26_2)"/>
<path d="M108.133 80.563C109.067 80.4729 109.957 80.3787 110.728 80.2929C109.788 80.7972 108.626 81.4197 107.365 82.0937C102.724 83.1795 97.1404 83.3004 91.2721 80.8022C93.5247 79.1261 95.4988 77.0954 97.1109 74.7936C100.625 74.4636 103.721 73.4619 106.404 72.1136L107.872 71.9736L108.205 72.378L107.845 72.5796L107.832 72.5869L107.82 72.595L107.82 72.5951L107.819 72.5955L107.816 72.5972L107.805 72.6045L107.759 72.6336C107.719 72.6592 107.659 72.6971 107.581 72.7457C107.426 72.8428 107.2 72.9827 106.92 73.1525C106.36 73.4925 105.582 73.952 104.714 74.4306C102.956 75.3992 100.895 76.4068 99.4983 76.7037L99.4981 76.7037C98.7046 76.8727 98.0894 77.1654 97.6973 77.5702C97.2877 77.9931 97.1354 78.5314 97.2977 79.0677C97.451 79.5741 97.859 79.9954 98.3913 80.301C98.9304 80.6105 99.6376 80.8272 100.478 80.9098L100.478 80.9098C102.108 81.0694 105.351 80.8312 108.133 80.563Z" stroke="#063400"/>
<mask id="path-18-inside-7_26_2" fill="white">
<path d="M116.906 60.6449C116.906 60.6449 113.726 61.5224 109.103 60.9212C104.48 60.32 101.779 61.1321 101.779 61.1321V59.3036L116.906 60.6449"/>
</mask>
<path d="M109.103 60.9212L109.232 59.9296L109.232 59.9296L109.103 60.9212ZM101.779 61.1321H100.779V62.477L102.067 62.0898L101.779 61.1321ZM101.779 59.3036L101.867 58.3075L100.779 58.211V59.3036H101.779ZM116.906 60.6449C116.64 59.6809 116.64 59.6808 116.64 59.6808C116.64 59.6807 116.641 59.6807 116.641 59.6806C116.641 59.6806 116.641 59.6805 116.641 59.6805C116.642 59.6804 116.642 59.6804 116.642 59.6804C116.641 59.6804 116.641 59.6807 116.639 59.6811C116.636 59.682 116.629 59.6837 116.62 59.6861C116.601 59.6909 116.571 59.6986 116.529 59.7085C116.445 59.7285 116.315 59.7576 116.144 59.7914C115.8 59.859 115.287 59.9452 114.633 60.014C113.324 60.1515 111.453 60.2185 109.232 59.9296L108.974 61.9129C111.376 62.2252 113.406 62.154 114.842 62.003C115.561 61.9275 116.133 61.8319 116.53 61.7538C116.728 61.7147 116.883 61.68 116.991 61.6543C117.045 61.6414 117.088 61.6308 117.118 61.6231C117.133 61.6192 117.145 61.616 117.154 61.6136C117.159 61.6124 117.162 61.6114 117.165 61.6106C117.167 61.6102 117.168 61.6099 117.169 61.6096C117.17 61.6094 117.17 61.6093 117.171 61.6092C117.171 61.6091 117.171 61.609 117.171 61.609C117.171 61.6089 117.172 61.6088 116.906 60.6449ZM109.232 59.9296C106.838 59.6183 104.93 59.6713 103.606 59.8064C102.944 59.8739 102.429 59.9619 102.072 60.035C101.894 60.0716 101.755 60.1044 101.658 60.1291C101.609 60.1415 101.571 60.1518 101.543 60.1595C101.529 60.1634 101.518 60.1666 101.509 60.1691C101.505 60.1704 101.501 60.1715 101.498 60.1724C101.497 60.1728 101.495 60.1732 101.494 60.1736C101.493 60.1737 101.493 60.1739 101.492 60.174C101.492 60.1741 101.492 60.1742 101.492 60.1743C101.491 60.1744 101.491 60.1745 101.779 61.1321C102.067 62.0898 102.067 62.0898 102.066 62.0899C102.066 62.09 102.066 62.09 102.066 62.0901C102.065 62.0902 102.065 62.0903 102.065 62.0904C102.064 62.0905 102.064 62.0906 102.064 62.0907C102.063 62.0908 102.064 62.0907 102.065 62.0905C102.066 62.0899 102.071 62.0887 102.078 62.0867C102.092 62.0829 102.116 62.0763 102.15 62.0677C102.218 62.0503 102.327 62.0244 102.474 61.9942C102.768 61.9339 103.217 61.8564 103.809 61.7961C104.991 61.6754 106.745 61.623 108.974 61.9129L109.232 59.9296ZM102.779 61.1321V59.3036H100.779V61.1321H102.779ZM101.691 60.2997L116.817 61.641L116.994 59.6488L101.867 58.3075L101.691 60.2997Z" fill="#063400" mask="url(#path-18-inside-7_26_2)"/>
<path d="M75.2 68.6C71.8933 68.6 69.2933 67.6667 67.4 65.8C65.5333 63.9067 64.6 61.3067 64.6 58C64.6 54.6933 65.5333 52.1067 67.4 50.24C69.2933 48.3467 71.8933 47.4 75.2 47.4C78.5067 47.4 81.0933 48.3467 82.96 50.24C84.8533 52.1067 85.8 54.6933 85.8 58C85.8 61.3067 84.8533 63.9067 82.96 65.8C81.0933 67.6667 78.5067 68.6 75.2 68.6ZM75.2 67.8C76.2667 67.8 77.16 67.0533 77.88 65.56C78.6267 64.0667 79 61.5467 79 58C79 54.4533 78.6267 51.9333 77.88 50.44C77.16 48.9467 76.2667 48.2 75.2 48.2C74.1333 48.2 73.2267 48.9467 72.48 50.44C71.76 51.9333 71.4 54.4533 71.4 58C71.4 61.5467 71.76 64.0667 72.48 65.56C73.2267 67.0533 74.1333 67.8 75.2 67.8Z" fill="#063400"/>
<path d="M40.4 68.6C36.9867 68.6 34.3333 67.6667 32.44 65.8C30.5467 63.9067 29.6 61.3067 29.6 58C29.6 54.6933 30.5467 52.1067 32.44 50.24C34.3333 48.3467 36.9867 47.4 40.4 47.4C42.8533 47.4 44.6933 47.8267 45.92 48.68C47.1733 49.5333 47.8 50.5733 47.8 51.8C47.8 52.7067 47.52 53.44 46.96 54C46.4267 54.5333 45.7067 54.8 44.8 54.8C44.4267 54.8 44.0533 54.7733 43.68 54.72L43.2 54.6V48.6L42.64 48.4C42.24 48.2667 41.76 48.2 41.2 48.2C39.68 48.2 38.4933 48.92 37.64 50.36C36.8133 51.8 36.4 54.3467 36.4 58C36.4 61.5467 36.8133 64.04 37.64 65.48C38.4933 66.8933 39.68 67.6 41.2 67.6C42.24 67.6 43.2 67.36 44.08 66.88C44.9867 66.3733 45.6933 65.72 46.2 64.92C46.7333 64.0933 47 63.2533 47 62.4H48C48 63.4667 47.68 64.48 47.04 65.44C46.4 66.4 45.5067 67.1733 44.36 67.76C43.2133 68.32 41.8933 68.6 40.4 68.6Z" fill="#063400"/>
</svg>
