<svg width="106" height="79" viewBox="0 0 106 79" fill="none" xmlns="http://www.w3.org/2000/svg">
<g clip-path="url(#clip0_774_2392)">
<path d="M40.342 79C62.1382 79 79.8075 61.3153 79.8075 39.5C79.8075 17.6848 62.1382 0 40.342 0C18.5458 0 0.876465 17.6848 0.876465 39.5C0.876465 61.3153 18.5458 79 40.342 79Z" fill="#1B5E20"/>
<path d="M3.80918 29.7919C2.72297 29.7919 1.92642 29.6107 1.41952 29.2483C0.912628 28.886 0.65918 28.3786 0.65918 27.7263C0.65918 27.2335 0.811249 26.8349 1.11539 26.5305C1.40504 26.2406 1.79608 26.0956 2.28849 26.0956C2.40435 26.0956 2.52021 26.1028 2.63608 26.1173C2.75194 26.1463 2.83159 26.1608 2.87504 26.1608L3.15746 26.2043V29.2483L3.2878 29.3136C3.43263 29.3426 3.53401 29.3571 3.59194 29.3571C4.0409 29.3571 4.40297 29.0817 4.67815 28.5308C4.9678 27.9945 5.11263 27.074 5.11263 25.7695V14.8979L3.80918 14.5717V14.2456H6.63332C7.93677 14.2456 8.58849 14.8979 8.58849 16.2025V25.7695C8.58849 26.5377 8.40021 27.2262 8.02366 27.835C7.64711 28.4439 7.09677 28.9222 6.37263 29.2701C5.64849 29.618 4.79401 29.7919 3.80918 29.7919ZM6.63332 12.941C6.19884 12.941 5.83677 12.7961 5.54711 12.5061C5.25746 12.2162 5.11263 11.8539 5.11263 11.419C5.11263 10.9841 5.25746 10.6217 5.54711 10.3318C5.83677 10.0419 6.19884 9.89697 6.63332 9.89697C7.0678 9.89697 7.42987 10.0419 7.71952 10.3318C8.00918 10.6217 8.15401 10.9841 8.15401 11.419C8.15401 11.8539 8.00918 12.2162 7.71952 12.5061C7.42987 12.7961 7.0678 12.941 6.63332 12.941ZM16.9539 25.4433C15.1002 25.4433 13.6591 24.936 12.6308 23.9213C11.6026 22.8921 11.0884 21.4788 11.0884 19.6814C11.0884 18.5072 11.3129 17.4853 11.7619 16.6156C12.2108 15.7459 12.8336 15.0791 13.6302 14.6152C14.4412 14.1514 15.3681 13.9194 16.4108 13.9194C17.4536 13.9194 18.366 14.1151 19.1481 14.5065C19.9446 14.8979 20.5529 15.427 20.9729 16.0938C21.4074 16.7461 21.6246 17.4708 21.6246 18.2681C21.6246 18.6305 21.5884 18.9421 21.516 19.203L21.4074 19.5727C20.7846 19.7031 20.1112 19.8118 19.3871 19.8988C17.8664 20.1162 16.3312 20.225 14.7815 20.225C14.7815 21.9064 15.0133 23.1095 15.4767 23.8343C15.9402 24.5446 16.5774 24.8997 17.3884 24.8997C17.9533 24.8997 18.4746 24.7693 18.9526 24.5083C19.445 24.2329 19.8288 23.8778 20.1039 23.4429C20.3936 22.9936 20.5384 22.537 20.5384 22.0731H21.0815C21.0815 22.6529 20.9077 23.2038 20.5602 23.7256C20.2126 24.2474 19.7274 24.6678 19.1046 24.9867C18.4819 25.2911 17.765 25.4433 16.9539 25.4433ZM14.7815 19.6814C15.7084 19.6814 16.4615 19.6451 17.0408 19.5727C17.2871 19.5582 17.5477 19.5219 17.8229 19.4639C17.8374 19.3915 17.8736 19.232 17.9315 18.9856C18.0039 18.6232 18.0402 18.2391 18.0402 17.8332C18.0402 16.6301 17.8808 15.7531 17.5622 15.2023C17.2436 14.637 16.8598 14.3543 16.4108 14.3543C15.3246 14.3543 14.7815 16.13 14.7815 19.6814ZM28.3499 25.4433C27.4519 25.4433 26.6481 25.2476 25.9385 24.8562C25.5909 24.6678 25.3085 24.4649 25.0912 24.2474C24.8595 24.5663 24.6061 24.8128 24.3309 24.9867C24.2005 25.0737 24.0557 25.1534 23.8964 25.2259H23.3533V21.5295H24.2223C24.4105 22.1383 24.6857 22.7037 25.0478 23.2255C25.8154 24.3417 26.7712 24.8997 27.9154 24.8997C28.5236 24.8997 28.9799 24.7548 29.284 24.4649C29.6026 24.1605 29.7619 23.7256 29.7619 23.1603C29.7619 22.6819 29.5447 22.2833 29.1102 21.9644C28.6902 21.631 28.024 21.2251 27.1116 20.7468C26.3295 20.3554 25.6923 20.0075 25.1999 19.7031C24.7219 19.3842 24.3092 18.9928 23.9616 18.529C23.6285 18.0506 23.4619 17.4926 23.4619 16.8548C23.4619 15.985 23.8312 15.282 24.5699 14.7457C25.323 14.1949 26.4743 13.9194 28.024 13.9194C28.7916 13.9194 29.5012 14.1224 30.153 14.5283C30.4716 14.7167 30.7467 14.9124 30.9785 15.1153C31.1667 14.8544 31.4202 14.608 31.7388 14.3761C31.985 14.2311 32.1299 14.1514 32.1733 14.1369H32.7164V17.8332H31.8474C31.6302 17.2099 31.3623 16.6518 31.0436 16.159C30.3195 15.0283 29.4578 14.463 28.4585 14.463C28.0674 14.463 27.7343 14.608 27.4592 14.8979C27.184 15.1878 27.0464 15.5502 27.0464 15.985C27.0464 16.5359 27.2781 16.9997 27.7416 17.3766C28.205 17.739 28.9074 18.1594 29.8488 18.6377C30.6164 19.0291 31.2247 19.377 31.6736 19.6814C32.1371 19.9713 32.5281 20.3337 32.8468 20.7685C33.1799 21.2034 33.3464 21.7107 33.3464 22.2906C33.3464 24.3924 31.6809 25.4433 28.3499 25.4433ZM34.9765 24.5736L41.1679 14.7892H37.2575C37.2575 15.5864 37.0186 16.3909 36.5406 17.2027C36.3524 17.5071 36.1206 17.7897 35.8455 18.0506H35.1938V14.2456H45.0782V14.7892L38.8869 24.5736H43.0144C43.0144 23.7473 43.2462 22.9428 43.7096 22.1601C43.9124 21.8267 44.1513 21.544 44.4265 21.3121H45.0782V25.1172H34.9765V24.5736Z" fill="white"/>
<path d="M38.0247 72.191C36.1709 72.191 34.7299 71.6836 33.7016 70.669C32.6733 69.6398 32.1592 68.2265 32.1592 66.4291C32.1592 64.6316 32.6733 63.2256 33.7016 62.2109C34.7299 61.1817 36.1709 60.6671 38.0247 60.6671C39.3571 60.6671 40.3564 60.8991 41.0226 61.3629C41.7033 61.8268 42.0437 62.3921 42.0437 63.0589C42.0437 63.5517 41.8916 63.9503 41.5875 64.2547C41.2978 64.5447 40.9068 64.6896 40.4144 64.6896C40.2116 64.6896 40.0088 64.6751 39.8061 64.6461L39.5454 64.5809V61.3194L39.2412 61.2107C39.024 61.1382 38.7633 61.102 38.4592 61.102C37.6337 61.102 36.9892 61.4934 36.5257 62.2761C36.0768 63.0589 35.8523 64.4432 35.8523 66.4291C35.8523 68.3569 36.0768 69.7123 36.5257 70.495C36.9892 71.2633 37.6337 71.6474 38.4592 71.6474C39.024 71.6474 39.5454 71.5169 40.0233 71.256C40.5157 70.9806 40.8995 70.6255 41.1747 70.1906C41.4644 69.7413 41.6092 69.2847 41.6092 68.8208H42.1523C42.1523 69.4006 41.9785 69.9514 41.6309 70.4733C41.2833 70.9951 40.7981 71.4155 40.1754 71.7344C39.5526 72.0388 38.8357 72.191 38.0247 72.191ZM43.6789 71.5387L44.9824 71.2125V57.2969L43.6789 56.9708V56.6447H46.5031C47.8065 56.6447 48.4582 57.297 48.4582 58.6015V62.0804C48.6755 61.7905 48.8999 61.5586 49.1317 61.3847C49.7544 60.9063 50.4713 60.6671 51.2824 60.6671C52.0934 60.6671 52.8175 60.8411 53.4548 61.189C54.1065 61.5224 54.6134 61.9645 54.9755 62.5153C55.3375 63.0661 55.5186 63.6459 55.5186 64.2547V71.2125L56.822 71.5387V71.8648H53.9979C52.6944 71.8648 52.0427 71.2125 52.0427 69.908V64.2547C52.0427 63.3415 51.8762 62.6458 51.5431 62.1674C51.2244 61.6746 50.8479 61.4281 50.4134 61.4281C49.8631 61.4281 49.3706 61.718 48.9362 62.2979C48.7479 62.5443 48.5886 62.8342 48.4582 63.1676V71.2125L49.7617 71.5387V71.8648H43.6789V71.5387ZM63.9919 72.191C62.1381 72.191 60.697 71.6836 59.6687 70.669C58.6405 69.6398 58.1263 68.2265 58.1263 66.4291C58.1263 64.6316 58.6405 63.2256 59.6687 62.2109C60.697 61.1817 62.1381 60.6671 63.9919 60.6671C65.3243 60.6671 66.3236 60.8991 66.9898 61.3629C67.6705 61.8268 68.0108 62.3921 68.0108 63.0589C68.0108 63.5517 67.8587 63.9503 67.5546 64.2547C67.265 64.5447 66.8739 64.6896 66.3815 64.6896C66.1787 64.6896 65.976 64.6751 65.7732 64.6461L65.5125 64.5809V61.3194L65.2084 61.2107C64.9912 61.1382 64.7305 61.102 64.4263 61.102C63.6008 61.102 62.9563 61.4934 62.4929 62.2761C62.0439 63.0589 61.8194 64.4432 61.8194 66.4291C61.8194 68.3569 62.0439 69.7123 62.4929 70.495C62.9563 71.2633 63.6008 71.6474 64.4263 71.6474C64.9912 71.6474 65.5125 71.5169 65.9905 71.256C66.4829 70.9806 66.8667 70.6255 67.1419 70.1906C67.4315 69.7413 67.5763 69.2847 67.5763 68.8208H68.1194C68.1194 69.4006 67.9456 69.9514 67.5981 70.4733C67.2505 70.9951 66.7653 71.4155 66.1425 71.7344C65.5198 72.0388 64.8029 72.191 63.9919 72.191ZM75.5119 72.191C73.6581 72.191 72.2168 71.6836 71.1885 70.669C70.1602 69.6398 69.6461 68.2265 69.6461 66.4291C69.6461 65.2549 69.8705 64.233 70.3195 63.3633C70.7685 62.4936 71.3912 61.8268 72.1878 61.3629C72.9991 60.8991 73.926 60.6671 74.9688 60.6671C76.0115 60.6671 76.9239 60.8628 77.706 61.2542C78.5026 61.6456 79.1108 62.1747 79.5308 62.8414C79.9653 63.4937 80.1826 64.2185 80.1826 65.0158C80.1826 65.3781 80.1464 65.6898 80.0739 65.9507L79.9653 66.3203C79.3426 66.4508 78.6691 66.5595 77.945 66.6465C76.4243 66.8639 74.8891 66.9726 73.3395 66.9726C73.3395 68.6541 73.5712 69.8572 74.0346 70.582C74.4981 71.2923 75.1353 71.6474 75.9464 71.6474C76.5112 71.6474 77.0326 71.5169 77.5105 71.256C78.0029 70.9806 78.3867 70.6255 78.6619 70.1906C78.9515 69.7413 79.0964 69.2847 79.0964 68.8208H79.6395C79.6395 69.4006 79.4657 69.9514 79.1181 70.4733C78.7705 70.9951 78.2853 71.4155 77.6626 71.7344C77.0398 72.0388 76.3229 72.191 75.5119 72.191ZM73.3395 66.4291C74.2664 66.4291 75.0195 66.3928 75.5988 66.3203C75.845 66.3058 76.1057 66.2696 76.3808 66.2116C76.3953 66.1392 76.4315 65.9797 76.4895 65.7333C76.5619 65.3709 76.5981 64.9868 76.5981 64.5809C76.5981 63.3778 76.4388 62.5008 76.1201 61.95C75.8015 61.3847 75.4177 61.102 74.9688 61.102C73.8826 61.102 73.3395 62.8777 73.3395 66.4291ZM86.9076 72.191C86.0097 72.191 85.2059 71.9953 84.4963 71.6039C84.1487 71.4155 83.8663 71.2125 83.649 70.9951C83.4173 71.314 83.1638 71.5604 82.8887 71.7344C82.7583 71.8214 82.6135 71.9011 82.4542 71.9736H81.9111V68.2772H82.78C82.9683 68.886 83.2435 69.4514 83.6056 69.9732C84.3732 71.0893 85.329 71.6474 86.4732 71.6474C87.0814 71.6474 87.5376 71.5025 87.8418 71.2125C88.1604 70.9081 88.3197 70.4733 88.3197 69.908C88.3197 69.4296 88.1025 69.031 87.668 68.7121C87.248 68.3787 86.5818 67.9728 85.6694 67.4945C84.8873 67.1031 84.2501 66.7552 83.7576 66.4508C83.2797 66.1319 82.8669 65.7405 82.5194 65.2767C82.1863 64.7983 82.0197 64.2403 82.0197 63.6025C82.0197 62.7327 82.389 62.0297 83.1276 61.4934C83.8807 60.9425 85.0321 60.6671 86.5818 60.6671C87.3494 60.6671 88.059 60.8701 88.7107 61.2759C89.0294 61.4644 89.3045 61.6601 89.5363 61.863C89.7245 61.6021 89.978 61.3557 90.2966 61.1237C90.5428 60.9788 90.6876 60.8991 90.7311 60.8846H91.2742V64.5809H90.4052C90.188 63.9576 89.92 63.3995 89.6014 62.9067C88.8773 61.776 88.0156 61.2107 87.0163 61.2107C86.6252 61.2107 86.2921 61.3557 86.0169 61.6456C85.7418 61.9355 85.6042 62.2979 85.6042 62.7327C85.6042 63.2836 85.8359 63.7474 86.2994 64.1243C86.7628 64.4867 87.4652 64.907 88.4066 65.3854C89.1742 65.7768 89.7825 66.1247 90.2314 66.4291C90.6949 66.719 91.0859 67.0814 91.4045 67.5162C91.7376 67.9511 91.9042 68.4584 91.9042 69.0382C91.9042 71.1401 90.2387 72.191 86.9076 72.191ZM93.5342 71.3213L99.7256 61.5369H95.8153C95.8153 62.3341 95.5763 63.1386 95.0984 63.9503C94.9101 64.2547 94.6784 64.5374 94.4032 64.7983H93.7515V60.9933H103.636V61.5369L97.4446 71.3213H101.572C101.572 70.495 101.804 69.6905 102.267 68.9078C102.47 68.5744 102.709 68.2917 102.984 68.0598H103.636V71.8648H93.5342V71.3213Z" fill="white"/>
<mask id="mask0_774_2392" style="mask-type:alpha" maskUnits="userSpaceOnUse" x="36" y="6" width="38" height="56">
<path d="M36.3594 43.0779C36.3594 53.3609 44.6879 61.6968 54.9599 61.6968C58.8953 61.6968 62.5452 60.4743 65.5497 58.3869C67.4085 57.0979 69.0201 55.4767 70.3009 53.6113C71.0069 52.5847 71.6131 51.4824 72.1042 50.3195C73.0435 48.0937 73.5627 45.6469 73.5627 43.0779C73.5627 42.866 73.5583 42.655 73.5525 42.444C73.4504 39.4258 72.6329 36.5903 71.2621 34.1031C69.9026 31.6341 68.8144 29.0257 67.9581 26.3406C65.7484 19.4099 66.4312 7.51579 56.2781 6.58107C55.8576 6.54271 55.4188 6.52252 54.9599 6.52252C54.5021 6.52252 54.0634 6.54069 53.6428 6.57703C43.047 7.47644 44.1766 19.3988 41.9638 26.3406C41.1066 29.0257 40.0194 31.6341 38.6598 34.1031C37.1934 36.7639 36.3594 39.8245 36.3594 43.0779Z" fill="white"/>
</mask>
<g mask="url(#mask0_774_2392)">
<path d="M65.5497 58.3869L65.1373 57.7912L65.1368 57.7915L65.5497 58.3869ZM70.301 53.6113L69.7044 53.2003L69.7041 53.2008L70.301 53.6113ZM72.1042 50.3195L72.7712 50.6017V50.6015L72.1042 50.3195ZM73.5526 42.444L74.2767 42.4232L74.276 42.4195L73.5526 42.444ZM71.2621 34.1031L70.6279 34.4529L70.628 34.4531L71.2621 34.1031ZM67.9581 26.3406L67.2682 26.561H67.2683L67.9581 26.3406ZM56.2781 6.58108L56.3444 5.85935L56.3439 5.85929L56.2781 6.58108ZM53.6428 6.57704L53.704 7.29924L53.7051 7.29909L53.6428 6.57704ZM41.9639 26.3406L42.6536 26.5613L42.6537 26.5609L41.9639 26.3406ZM38.6598 34.1031L39.294 34.4531L39.294 34.4529L38.6598 34.1031ZM35.6353 43.0779C35.6353 53.7612 44.288 62.4216 54.96 62.4216V60.9721C45.0879 60.9721 37.0835 52.9607 37.0835 43.0779H35.6353ZM54.96 62.4216C59.0474 62.4216 62.8407 61.1514 65.9627 58.9823L65.1368 57.7915C62.2498 59.7973 58.7432 60.9721 54.96 60.9721V62.4216ZM65.9621 58.9826C67.8933 57.6434 69.5673 55.9594 70.8977 54.0218L69.7041 53.2008C68.4729 54.9941 66.9236 56.5523 65.1373 57.7912L65.9621 58.9826ZM70.8974 54.0222C71.6309 52.9557 72.2608 51.8103 72.7712 50.6017L71.4373 50.0374C70.9654 51.1545 70.3829 52.2138 69.7044 53.2003L70.8974 54.0222ZM72.7712 50.6015C73.7474 48.2881 74.2868 45.7455 74.2868 43.0779H72.8386C72.8386 45.5484 72.3391 47.8994 71.4371 50.0377L72.7712 50.6015ZM74.2868 43.0779C74.2868 42.8569 74.2825 42.6386 74.2767 42.4232L72.8284 42.4648C72.8349 42.6713 72.8386 42.875 72.8386 43.0779H74.2868ZM74.276 42.4195C74.1703 39.2847 73.3208 36.338 71.8962 33.7531L70.628 34.4531C71.9448 36.8427 72.7307 39.5669 72.8284 42.4684L74.276 42.4195ZM71.8963 33.7533C70.5619 31.3299 69.4915 28.7656 68.648 26.1202L67.2683 26.561C68.1372 29.2858 69.2432 31.9382 70.6279 34.4529L71.8963 33.7533ZM68.648 26.1203C68.1118 24.4387 67.7488 22.4475 67.3397 20.3235C66.935 18.2225 66.4876 16.0085 65.7808 13.9743C65.0736 11.9385 64.0898 10.0309 62.5793 8.56744C61.0551 7.09059 59.0366 6.1072 56.3444 5.85935L56.2118 7.30279C58.5961 7.52232 60.2998 8.37617 61.5721 9.60894C62.8582 10.8551 63.7455 12.5295 64.4129 14.4504C65.0808 16.3729 65.5116 18.4903 65.9176 20.5979C66.3192 22.6826 66.6995 24.7772 67.2682 26.561L68.648 26.1203ZM56.3439 5.85929C55.9008 5.81888 55.4401 5.79776 54.96 5.79776V7.2473C55.3976 7.2473 55.8144 7.26655 56.2124 7.30286L56.3439 5.85929ZM54.96 5.79776C54.483 5.79776 54.0234 5.81669 53.5806 5.85496L53.7051 7.29909C54.1033 7.26474 54.5212 7.2473 54.96 7.2473V5.79776ZM53.5816 5.85486C50.7853 6.09222 48.7094 7.06588 47.1595 8.5436C45.623 10.0086 44.6523 11.9225 43.9727 13.9638C43.294 16.0023 42.8889 18.2223 42.519 20.3247C42.1448 22.4516 41.8089 24.4422 41.274 26.1203L42.6537 26.5609C43.2252 24.7682 43.5778 22.6652 43.9453 20.5761C44.3172 18.4626 44.7067 16.3443 45.3467 14.4221C45.9857 12.5026 46.8577 10.8334 48.1585 9.59314C49.4461 8.36545 51.2024 7.5116 53.704 7.29924L53.5816 5.85486ZM41.274 26.12C40.4294 28.7657 39.3599 31.33 38.0256 33.7533L39.294 34.4529C40.6788 31.938 41.7838 29.2857 42.6536 26.5613L41.274 26.12ZM38.0258 33.7531C36.5017 36.5185 35.6353 39.6992 35.6353 43.0779H37.0835C37.0835 39.9499 37.8852 37.0094 39.294 34.4531L38.0258 33.7531Z" fill="white"/>
</g>
<mask id="mask1_774_2392" style="mask-type:alpha" maskUnits="userSpaceOnUse" x="36" y="13" width="32" height="49">
<path d="M36.3599 43.056C36.3628 39.8019 37.2013 36.743 38.6723 34.0834C40.0339 31.6162 41.1246 29.0089 41.9847 26.3247C43.1837 22.5804 43.4113 17.3856 45.0321 13.2548L46.0508 13.0999C46.0508 13.0999 47.241 25.1324 45.3601 29.6686C43.4803 34.2047 38.2259 60.1976 65.6799 57.2837C66.1943 57.2294 66.6859 57.1811 67.1539 57.1397C63.8828 59.9836 59.6099 61.7034 54.9368 61.6975C44.6655 61.6847 36.3471 53.3383 36.3599 43.056Z" fill="white"/>
</mask>
<g mask="url(#mask1_774_2392)">
<path d="M36.3599 43.056C36.3628 39.8019 37.2013 36.743 38.6723 34.0834C40.0339 31.6162 41.1246 29.0089 41.9847 26.3247C43.1837 22.5804 43.4113 17.3856 45.0321 13.2548L46.0508 13.0999C46.0508 13.0999 47.241 25.1324 45.3601 29.6686C43.4803 34.2047 38.2259 60.1976 65.6799 57.2837C66.1943 57.2294 66.6859 57.1811 67.1539 57.1397C63.8828 59.9836 59.6099 61.7034 54.9368 61.6975C44.6655 61.6847 36.3471 53.3383 36.3599 43.056Z" fill="#1B5E20"/>
<path d="M38.6723 34.0834L39.3058 34.4344L39.3061 34.4338L38.6723 34.0834ZM41.9847 26.3247L42.6742 26.546L42.6743 26.5459L41.9847 26.3247ZM45.0321 13.2547L44.9233 12.5382L44.5106 12.6009L44.3581 12.9898L45.0321 13.2547ZM46.0508 13.0999L46.7714 13.0285L46.6963 12.2688L45.9421 12.3834L46.0508 13.0999ZM45.3601 29.6686L44.6913 29.3907L44.6912 29.3909L45.3601 29.6686ZM65.68 57.2837L65.6041 56.5629H65.6036L65.68 57.2837ZM67.1539 57.1397L67.6288 57.6868L69.315 56.2208L67.0901 56.4177L67.1539 57.1397ZM54.9368 61.6975L54.9377 60.9727L54.9368 61.6975ZM37.084 43.0567C37.0869 39.9282 37.8927 36.9895 39.3058 34.4344L38.0387 33.7324C36.5099 36.4965 35.6388 39.6755 35.6358 43.0554L37.084 43.0567ZM39.3061 34.4338C40.693 31.9209 41.8014 29.2697 42.6742 26.546L41.2952 26.1033C40.4477 28.748 39.3748 31.3114 38.0384 33.733L39.3061 34.4338ZM42.6743 26.5459C43.2925 24.6154 43.6587 22.3174 44.063 20.0627C44.4727 17.7775 44.9249 15.5109 45.7061 13.5197L44.3581 12.9898C43.5186 15.1294 43.0465 17.5256 42.6375 19.8067C42.223 22.1182 41.8759 24.2897 41.2951 26.1035L42.6743 26.5459ZM45.1408 13.9713L46.1595 13.8164L45.9421 12.3834L44.9233 12.5382L45.1408 13.9713ZM46.0508 13.0999C45.3302 13.1713 45.3302 13.1713 45.3302 13.1713C45.3302 13.1714 45.3302 13.1715 45.3302 13.1716C45.3303 13.1719 45.3303 13.1723 45.3304 13.173C45.3305 13.1742 45.3307 13.1763 45.331 13.1789C45.3315 13.1844 45.3323 13.1927 45.3333 13.2037C45.3354 13.2259 45.3386 13.2592 45.3427 13.303C45.3508 13.3906 45.3625 13.5204 45.3768 13.6876C45.4054 14.0219 45.4442 14.5056 45.485 15.1005C45.5666 16.291 45.6559 17.924 45.6868 19.6959C45.7178 21.4697 45.69 23.3717 45.5402 25.1034C45.3889 26.8505 45.1177 28.3625 44.6913 29.3907L46.029 29.9464C46.5431 28.7066 46.8285 27.0135 46.983 25.2286C47.1388 23.4285 47.1663 21.4719 47.1349 19.6706C47.1034 17.8673 47.0126 16.2086 46.9298 15.0013C46.8884 14.3973 46.849 13.9054 46.8198 13.5641C46.8052 13.3933 46.7932 13.2602 46.7848 13.1693C46.7806 13.1239 46.7773 13.0891 46.775 13.0654C46.7739 13.0536 46.773 13.0445 46.7724 13.0383C46.7721 13.0353 46.7718 13.0329 46.7717 13.0312C46.7716 13.0304 46.7715 13.0298 46.7715 13.0293C46.7715 13.0291 46.7715 13.0289 46.7715 13.0288C46.7715 13.0286 46.7714 13.0285 46.0508 13.0999ZM44.6912 29.3909C44.1887 30.6037 43.4948 33.1492 43.1614 36.2288C42.8274 39.3137 42.8478 42.997 43.8228 46.4661C44.8007 49.9461 46.7481 53.2346 50.2735 55.4499C53.7911 57.6602 58.7879 58.744 65.7563 58.0044L65.6036 56.5629C58.845 57.2803 54.2034 56.2077 51.0435 54.2222C47.8914 52.2415 46.1221 49.2947 45.217 46.0737C44.3087 42.8418 44.2793 39.3584 44.6012 36.3849C44.9238 33.4062 45.5917 31.0016 46.029 29.9463L44.6912 29.3909ZM65.7558 58.0045C66.267 57.9506 66.7545 57.9026 67.2177 57.8616L67.0901 56.4177C66.6173 56.4596 66.1216 56.5083 65.6041 56.5629L65.7558 58.0045ZM66.679 56.5925C63.5349 59.3262 59.4293 60.9784 54.9377 60.9727L54.9359 62.4222C59.7904 62.4284 64.2309 60.6411 67.6288 57.6868L66.679 56.5925ZM54.9377 60.9727C45.0664 60.9604 37.0717 52.9389 37.084 43.057L35.6358 43.0551C35.6224 53.7375 44.2647 62.409 54.9359 62.4222L54.9377 60.9727Z" fill="white"/>
<path d="M64.0465 56.2176L64.0462 56.2178C61.3731 58.0747 58.2317 59.0568 54.9614 59.0568C46.1595 59.0568 38.9985 51.8886 38.9985 43.0789C38.9985 40.3843 39.6805 37.721 40.9715 35.378V35.3779C42.3602 32.8562 43.5389 30.0849 44.4774 27.1436C45.0546 25.3338 45.4034 23.3447 45.767 21.271L45.7681 21.2648C45.7681 21.2648 45.7681 21.2648 45.7681 21.2647C46.3084 18.1875 46.8557 15.0896 48.1048 12.8158L48.1049 12.8158C48.7338 11.6697 49.4872 10.8329 50.4152 10.2512C51.3445 9.66866 52.4716 9.32758 53.8691 9.20872L53.87 9.20864C54.2112 9.17885 54.5785 9.16422 54.9614 9.16422C55.3328 9.16422 55.6945 9.18067 56.0358 9.21241L56.0363 9.21248C57.3704 9.33475 58.4554 9.68272 59.362 10.2778C60.2686 10.8728 61.0191 11.7296 61.6615 12.9039L61.9791 12.7299L61.6615 12.9039C62.9375 15.2358 63.5428 18.3737 64.1398 21.4852C64.5227 23.4862 64.8896 25.4019 65.4454 27.1436C66.384 30.086 67.5636 32.8562 68.9512 35.3778L68.9513 35.378C70.1698 37.5894 70.8299 39.9963 70.9156 42.5287V42.5292C70.9224 42.724 70.9253 42.9039 70.9253 43.0789C70.9253 45.2349 70.5042 47.3251 69.6738 49.2918L69.6737 49.2919C69.2577 50.2784 68.7375 51.2284 68.1276 52.1173C67.0226 53.7256 65.6504 55.1048 64.0465 56.2176Z" fill="white" stroke="white"/>
</g>
<mask id="mask2_774_2392" style="mask-type:alpha" maskUnits="userSpaceOnUse" x="38" y="17" width="25" height="43">
<path d="M38.6353 43.0792C38.6353 40.3234 39.3331 37.5998 40.6539 35.2025C42.03 32.7029 43.1999 29.9539 44.1313 27.0335C44.7007 25.2489 45.0462 23.2831 45.4112 21.2014C45.6136 20.0422 45.8209 18.8674 46.0682 17.7277C46.2258 21.6203 46.1947 26.9702 45.0754 29.6685C43.2603 34.0491 38.2995 58.4333 62.6771 57.4826C60.3159 58.7538 57.6812 59.4191 54.9599 59.4191C45.9582 59.4191 38.6353 52.0889 38.6353 43.0792Z" fill="white"/>
</mask>
<g mask="url(#mask2_774_2392)">
<path d="M38.6353 43.0792C38.6353 40.3234 39.3331 37.5998 40.6539 35.2025C42.03 32.7029 43.1999 29.9539 44.1313 27.0335C44.7007 25.2489 45.0462 23.2831 45.4112 21.2014C45.6136 20.0422 45.8209 18.8674 46.0682 17.7277C46.2258 21.6203 46.1947 26.9702 45.0754 29.6685C43.2603 34.0491 38.2995 58.4333 62.6771 57.4826C60.3159 58.7538 57.6812 59.4191 54.9599 59.4191C45.9582 59.4191 38.6353 52.0889 38.6353 43.0792Z" fill="#1B5E20"/>
<path d="M40.6539 35.2025L41.288 35.5525L41.2881 35.5522L40.6539 35.2025ZM44.1313 27.0335L43.4415 26.813V26.8131L44.1313 27.0335ZM45.4112 21.2014L46.1245 21.3267L46.1245 21.3262L45.4112 21.2014ZM46.0682 17.7277L46.7917 17.6983L45.3605 17.5739L46.0682 17.7277ZM45.0754 29.6685L44.4067 29.3906L44.4065 29.3908L45.0754 29.6685ZM62.6771 57.4826L63.0201 58.1209L62.6488 56.7584L62.6771 57.4826ZM39.3594 43.0792C39.3594 40.445 40.0267 37.8418 41.288 35.5525L40.0197 34.8525C38.6395 37.3578 37.9111 40.2019 37.9111 43.0792H39.3594ZM41.2881 35.5522C42.6886 33.0084 43.8765 30.2158 44.8212 27.2539L43.4415 26.8131C42.5233 29.692 41.3715 32.3973 40.0196 34.8527L41.2881 35.5522ZM44.8211 27.254C45.4082 25.4139 45.7614 23.3975 46.1245 21.3267L44.698 21.0761C44.331 23.1687 43.9932 25.0839 43.4415 26.813L44.8211 27.254ZM46.1245 21.3262C46.3272 20.1657 46.5321 19.0047 46.7758 17.8815L45.3605 17.5739C45.1097 18.7301 44.9001 19.9188 44.6979 21.0766L46.1245 21.3262ZM45.3446 17.757C45.423 19.691 45.4538 21.9752 45.3278 24.103C45.2005 26.2529 44.9167 28.1609 44.4067 29.3906L45.7442 29.9464C46.3534 28.4778 46.6448 26.3616 46.7735 24.1888C46.9035 21.994 46.871 19.6569 46.7917 17.6983L45.3446 17.757ZM44.4065 29.3908C43.9209 30.5628 43.2577 32.9766 42.9126 35.9115C42.5669 38.8523 42.5336 42.3733 43.3502 45.7456C44.1684 49.1242 45.849 52.3848 48.9505 54.7318C52.0525 57.0792 56.4916 58.4491 62.7053 58.2068L62.6488 56.7584C56.6737 56.9914 52.5914 55.6698 49.824 53.5756C47.0563 51.4812 45.5197 48.5502 44.7577 45.404C43.9943 42.2515 44.0179 38.9145 44.351 36.0809C44.6848 33.2415 45.3224 30.9644 45.7443 29.9461L44.4065 29.3908ZM62.334 56.8443C60.079 58.0584 57.5622 58.6944 54.9599 58.6944V60.1439C57.8002 60.1439 60.5528 59.4492 63.0201 58.1209L62.334 56.8443ZM54.9599 58.6944C46.3581 58.6944 39.3594 51.6887 39.3594 43.0792H37.9111C37.9111 52.4891 45.5582 60.1439 54.9599 60.1439V58.6944Z" fill="white"/>
</g>
<mask id="mask3_774_2392" style="mask-type:alpha" maskUnits="userSpaceOnUse" x="70" y="42" width="17" height="12">
<path d="M70.3013 53.6118C73.2379 53.3621 75.7674 52.4517 77.8978 51.2499C81.1318 49.4263 83.4483 46.9335 84.8734 45.0653C86.0125 43.5749 86.5845 42.4813 86.6034 42.4442C82.7003 43.8473 77.5458 41.5348 73.5529 42.4442C73.5595 42.655 73.5631 42.8658 73.5631 43.0784C73.5631 44.2384 73.4566 45.3738 73.2539 46.475C73.0084 47.8126 72.6195 49.0989 72.1043 50.3196C71.613 51.4825 71.0069 52.5847 70.3013 53.6118Z" fill="white"/>
</mask>
<g mask="url(#mask3_774_2392)">
<path d="M77.8978 51.2499L77.5422 50.6185V50.6185L77.8978 51.2499ZM84.8734 45.0653L84.2984 44.6249L84.2977 44.6253L84.8734 45.0653ZM86.6034 42.4442L87.2479 42.7749L88.085 41.1417L86.3586 41.7621L86.6034 42.4442ZM73.5529 42.4442L73.3922 41.7375L72.81 41.8701L72.8288 42.4671L73.5529 42.4442ZM73.2539 46.475L72.5417 46.3435L72.5416 46.3439L73.2539 46.475ZM72.1043 50.3196L72.7716 50.6019V50.6015L72.1043 50.3196ZM70.3625 54.3339C73.4154 54.0744 76.044 53.1275 78.2533 51.8813L77.5422 50.6185C75.49 51.776 73.0605 52.6498 70.2399 52.8896L70.3625 54.3339ZM78.2533 51.8814C81.6003 49.994 83.9863 47.4217 85.4491 45.5051L84.2977 44.6253C82.9095 46.4452 80.6633 48.8586 77.5422 50.6185L78.2533 51.8814ZM85.4484 45.5056C86.6186 43.9747 87.2131 42.8431 87.2479 42.7749L85.9589 42.1135C85.9596 42.1123 85.9256 42.1787 85.8553 42.3028C85.7858 42.4259 85.6815 42.6043 85.5432 42.8277C85.2659 43.2747 84.8517 43.9009 84.2984 44.6249L85.4484 45.5056ZM86.3586 41.7621C84.5961 42.3959 82.504 42.2027 80.2027 41.9104C77.9818 41.6282 75.5429 41.2476 73.3922 41.7375L73.713 43.1509C75.5552 42.7314 77.6899 43.0523 80.0209 43.3484C82.2708 43.6341 84.7083 43.8956 86.8481 43.1263L86.3586 41.7621ZM72.8288 42.4671C72.8353 42.6713 72.8389 42.8744 72.8389 43.0784H74.2872C74.2872 42.8571 74.2829 42.6387 74.2764 42.4214L72.8288 42.4671ZM72.8389 43.0784C72.8389 44.194 72.7368 45.2854 72.5417 46.3435L73.9657 46.6064C74.1772 45.4622 74.2872 44.2828 74.2872 43.0784H72.8389ZM72.5416 46.3439C72.3056 47.6289 71.9321 48.8646 71.4372 50.0377L72.7716 50.6015C73.3067 49.333 73.7108 47.9962 73.9657 46.606L72.5416 46.3439ZM71.4373 50.0374C70.9653 51.1546 70.3829 52.2138 69.7046 53.2011L70.898 54.0224C71.6309 52.9555 72.2607 51.8104 72.7716 50.6019L71.4373 50.0374Z" fill="white"/>
</g>
<mask id="mask4_774_2392" style="mask-type:alpha" maskUnits="userSpaceOnUse" x="70" y="45" width="15" height="9">
<path d="M70.3013 53.6118C73.2379 53.3621 75.7674 52.4517 77.8978 51.2499C81.1318 49.4263 83.4483 46.9335 84.8734 45.0653C84.373 45.2769 83.7741 45.6007 83.063 46.0573C75.6088 50.837 73.9128 50.2114 73.9128 50.2114C74.448 48.4695 74.2698 45.4317 74.2698 45.4317L73.2539 46.475C73.0084 47.8126 72.6195 49.0989 72.1043 50.3196C71.613 51.4825 71.0069 52.5847 70.3013 53.6118Z" fill="white"/>
</mask>
<g mask="url(#mask4_774_2392)">
<path d="M77.8978 51.2499L77.5422 50.6185V50.6185L77.8978 51.2499ZM84.8734 45.0653L85.4491 45.5051L87.1045 43.3353L84.5917 44.3976L84.8734 45.0653ZM83.0631 46.0573L83.4534 46.6675L83.4541 46.6673L83.0631 46.0573ZM73.9128 50.2114L73.2206 49.9984L73.0193 50.6542L73.6623 50.8914L73.9128 50.2114ZM74.2698 45.4317L74.9925 45.3892L74.8962 43.7496L73.7514 44.9258L74.2698 45.4317ZM73.2539 46.475L72.7354 45.9691L72.5812 46.1271L72.5416 46.3439L73.2539 46.475ZM72.1043 50.3196L72.7716 50.6019V50.6015L72.1043 50.3196ZM70.3625 54.3339C73.4154 54.0744 76.044 53.1275 78.2533 51.8813L77.5422 50.6185C75.4907 51.776 73.0605 52.6498 70.2399 52.8896L70.3625 54.3339ZM78.2533 51.8814C81.6003 49.994 83.9863 47.4217 85.4491 45.5051L84.2977 44.6253C82.9095 46.4452 80.6633 48.8586 77.5422 50.6185L78.2533 51.8814ZM84.5917 44.3976C84.0414 44.6303 83.4048 44.9766 82.672 45.4472L83.4541 46.6673C84.1435 46.2247 84.7047 45.9236 85.1551 45.7329L84.5917 44.3976ZM82.672 45.447C78.9717 47.8197 76.7428 48.8229 75.469 49.2374C74.834 49.4441 74.4509 49.4994 74.2525 49.5109C74.154 49.5167 74.1033 49.5115 74.0917 49.51C74.0859 49.5092 74.0903 49.5094 74.1026 49.5124C74.1091 49.5139 74.1171 49.5161 74.1272 49.5191C74.1323 49.5207 74.1381 49.5225 74.1438 49.5245C74.1467 49.5255 74.1504 49.5266 74.1533 49.5277C74.1547 49.5283 74.1569 49.5289 74.1583 49.5295C74.1591 49.5298 74.1605 49.5302 74.1612 49.5304C74.162 49.5309 74.1634 49.5313 73.9128 50.2114C73.6623 50.8914 73.6637 50.8919 73.6652 50.8924C73.6659 50.8926 73.6666 50.893 73.6681 50.8934C73.6695 50.894 73.6717 50.8946 73.6732 50.8953C73.6768 50.8966 73.6804 50.8979 73.6847 50.8992C73.692 50.9017 73.7007 50.9043 73.7086 50.9069C73.726 50.9121 73.7448 50.9171 73.7651 50.9221C73.8064 50.9319 73.8535 50.9408 73.9092 50.9479C74.0193 50.9619 74.1598 50.9683 74.3365 50.958C74.6884 50.9375 75.196 50.8504 75.9165 50.616C77.3539 50.1484 79.6994 49.0746 83.4534 46.6675L82.672 45.447ZM74.6051 50.4243C74.9042 49.4512 74.9933 48.1706 75.0157 47.1849C75.0273 46.6815 75.0215 46.235 75.0128 45.9141C75.0085 45.7535 75.0034 45.6237 74.9998 45.5335C74.9976 45.4883 74.9962 45.453 74.9947 45.4287C74.994 45.4164 74.9933 45.407 74.9933 45.4003C74.9933 45.397 74.9925 45.3945 74.9925 45.3926C74.9925 45.3916 74.9925 45.3908 74.9925 45.3903C74.9925 45.3901 74.9925 45.3898 74.9925 45.3896C74.9925 45.3895 74.9925 45.3894 74.9925 45.3893C74.9925 45.3893 74.9925 45.3892 74.2698 45.4317C73.5464 45.4742 73.5464 45.4741 73.5464 45.4741C73.5464 45.474 73.5464 45.4741 73.5464 45.4741C73.5464 45.4743 73.5472 45.4746 73.5472 45.4752C73.5472 45.4762 73.5472 45.478 73.5472 45.4805C73.5472 45.4855 73.5479 45.4933 73.5486 45.5038C73.5493 45.5247 73.5508 45.5564 73.5529 45.5977C73.5566 45.6804 73.5609 45.8016 73.5653 45.953C73.5732 46.2561 73.579 46.6779 73.5682 47.1518C73.5457 48.1204 73.4566 49.2296 73.2206 49.9984L74.6051 50.4243ZM73.7514 44.9258L72.7354 45.9691L73.7724 46.9808L74.7883 45.9375L73.7514 44.9258ZM72.5416 46.3439C72.3056 47.6289 71.9321 48.8646 71.4372 50.0377L72.7716 50.6015C73.3067 49.333 73.7108 47.9962 73.9657 46.606L72.5416 46.3439ZM71.4374 50.0374C70.9653 51.1546 70.3829 52.2138 69.7046 53.2011L70.898 54.0224C71.6309 52.9555 72.2607 51.8104 72.7716 50.6019L71.4374 50.0374Z" fill="white"/>
</g>
<mask id="mask5_774_2392" style="mask-type:alpha" maskUnits="userSpaceOnUse" x="65" y="51" width="23" height="10">
<path d="M65.5508 58.3871C70.1168 60.5088 74.4759 60.4375 78.0575 59.5908C83.3937 58.332 87.0042 55.355 87.0042 55.355C84.0584 55.1813 81.2676 53.0283 78.4529 51.535L77.1299 51.6613C75.1675 52.6571 72.893 53.3919 70.3017 53.6121C69.0212 55.4775 67.4088 57.0979 65.5508 58.3871Z" fill="white"/>
</mask>
<g mask="url(#mask5_774_2392)">
<path d="M78.0575 59.5908L77.8909 58.8854V58.8854L78.0575 59.5908ZM87.0042 55.355L87.4647 55.9145L88.8891 54.7401L87.0469 54.6315L87.0042 55.355ZM78.4528 51.535L78.7917 50.8946L78.5998 50.7929L78.384 50.8135L78.4528 51.535ZM77.1298 51.6613L77.061 50.9398L76.9242 50.9528L76.8025 51.0149L77.1298 51.6613ZM70.3016 53.6121L70.2404 52.8899L69.8988 52.919L69.7047 53.2017L70.3016 53.6121ZM65.2458 59.0444C69.9893 61.2486 74.52 61.1718 78.224 60.2961L77.8909 58.8854C74.4317 59.7033 70.2441 59.7689 65.8557 57.7297L65.2458 59.0444ZM78.2233 60.2962C80.9772 59.6466 83.2799 58.5554 84.8919 57.6295C85.6993 57.1658 86.3365 56.7416 86.7746 56.4315C86.994 56.2763 87.1635 56.1495 87.2794 56.0603C87.3373 56.0157 87.3822 55.9805 87.4133 55.9558C87.4285 55.9434 87.4408 55.9337 87.4495 55.9268C87.4539 55.9233 87.4575 55.9205 87.4597 55.9184C87.4611 55.9174 87.4618 55.9166 87.4626 55.9159C87.4633 55.9155 87.4633 55.9153 87.464 55.915C87.464 55.9149 87.464 55.9147 87.464 55.9147C87.4647 55.9145 87.4647 55.9145 87.0042 55.355C86.5436 54.7956 86.5436 54.7955 86.5444 54.7954V54.7953C86.5444 54.7952 86.5444 54.7952 86.5444 54.7952C86.5444 54.7953 86.5436 54.7955 86.5436 54.7959C86.5422 54.7967 86.5407 54.7982 86.5378 54.8004C86.5328 54.8048 86.5234 54.8119 86.511 54.8217C86.4864 54.8413 86.4488 54.8712 86.3974 54.9104C86.2952 54.989 86.141 55.1046 85.9383 55.2482C85.5327 55.5355 84.9339 55.9343 84.1714 56.3722C82.6441 57.2494 80.4732 58.2762 77.8909 58.8854L78.2233 60.2962ZM87.0469 54.6315C85.729 54.5538 84.4045 54.0295 83.0164 53.2985C82.3255 52.9345 81.6354 52.5288 80.9294 52.1129C80.2291 51.7001 79.5122 51.2769 78.7917 50.8946L78.1139 52.1754C78.8004 52.5398 79.4884 52.9457 80.1951 53.362C80.8961 53.7752 81.6159 54.1986 82.3422 54.5812C83.789 55.3433 85.3336 55.9825 86.9615 56.0785L87.0469 54.6315ZM78.384 50.8135L77.061 50.9398L77.1986 52.3828L78.5216 52.2565L78.384 50.8135ZM76.8025 51.0149C74.914 51.9729 72.7292 52.6784 70.2404 52.8899L70.3629 54.3342C73.0558 54.1054 75.4201 53.3412 77.4571 52.3077L76.8025 51.0149ZM69.7047 53.2017C68.4741 54.9946 66.9241 56.5523 65.1382 57.7914L65.9633 58.9827C67.8935 57.6435 69.5683 55.9603 70.8985 54.0225L69.7047 53.2017Z" fill="white"/>
<path d="M78.4557 58.1394C79.1321 58.0741 79.7765 58.0059 80.3348 57.9437C79.6542 58.3092 78.8127 58.7603 77.8996 59.2488C74.5388 60.0358 70.4956 60.1234 66.2461 58.3128C67.8773 57.098 69.3068 55.6262 70.4742 53.9579C73.0189 53.7188 75.2608 52.9927 77.2037 52.0156L78.2667 51.9141L78.5079 52.2072L78.2472 52.3533L78.2377 52.3586L78.2291 52.3645V52.3645L78.2283 52.3648L78.2262 52.3661L78.2182 52.3713L78.1849 52.3924C78.1559 52.411 78.1125 52.4385 78.056 52.4737C77.9437 52.5441 77.7801 52.6454 77.5773 52.7685C77.1718 53.0149 76.6084 53.348 75.9799 53.6949C74.7068 54.3969 73.2144 55.1271 72.203 55.3423H72.2029C71.6282 55.4648 71.1828 55.677 70.8988 55.9703C70.6022 56.2768 70.4919 56.667 70.6095 57.0557C70.7205 57.4227 71.0159 57.728 71.4014 57.9496C71.7918 58.1739 72.3039 58.3309 72.9124 58.3908C74.0928 58.5065 76.4412 58.3338 78.4557 58.1394Z" stroke="white"/>
</g>
<path d="M79.1581 43.9038L79.2515 43.1852L79.1581 43.9038ZM73.8545 44.0567H73.1304V45.0314L74.0631 44.7508L73.8545 44.0567ZM73.8545 42.7315L73.9182 42.0095L73.1304 41.9396V42.7315H73.8545ZM84.8085 43.7036C84.6159 43.0049 84.6159 43.0048 84.6159 43.0048C84.6159 43.0048 84.6166 43.0048 84.6166 43.0047V43.0046C84.6174 43.0046 84.6174 43.0046 84.6174 43.0046C84.6166 43.0046 84.6166 43.0048 84.6152 43.0051C84.613 43.0057 84.608 43.0069 84.6014 43.0087C84.5877 43.0122 84.566 43.0177 84.5355 43.0249C84.4747 43.0394 84.3806 43.0605 84.2567 43.085C84.0076 43.134 83.6362 43.1965 83.1626 43.2463C82.2147 43.346 80.8598 43.3945 79.2515 43.1852L79.0647 44.6226C80.8041 44.8489 82.2741 44.7973 83.3139 44.6879C83.8346 44.6332 84.2488 44.5639 84.5363 44.5073C84.6796 44.479 84.7919 44.4538 84.8701 44.4352C84.9092 44.4258 84.9403 44.4181 84.9621 44.4126C84.9729 44.4097 84.9816 44.4074 84.9881 44.4057C84.9917 44.4048 84.9939 44.4041 84.9961 44.4035C84.9975 44.4032 84.9983 44.403 84.999 44.4028C84.9997 44.4026 84.9997 44.4026 85.0004 44.4025C85.0004 44.4024 85.0004 44.4023 85.0004 44.4023C85.0004 44.4023 85.0012 44.4022 84.8085 43.7036ZM79.2515 43.1852C77.5179 42.9595 76.1363 42.998 75.1775 43.0959C74.6981 43.1448 74.3252 43.2086 74.0667 43.2616C73.9378 43.2881 73.8371 43.3119 73.7669 43.3298C73.7314 43.3387 73.7039 43.3462 73.6836 43.3518C73.6735 43.3546 73.6655 43.3569 73.659 43.3587C73.6561 43.3597 73.6532 43.3605 73.651 43.3611C73.6503 43.3614 73.6489 43.3617 73.6481 43.362C73.6474 43.3621 73.6474 43.3622 73.6467 43.3623C73.6467 43.3624 73.6467 43.3624 73.6467 43.3625C73.646 43.3626 73.646 43.3627 73.8545 44.0567C74.0631 44.7508 74.0631 44.7508 74.0623 44.7509C74.0623 44.751 74.0623 44.751 74.0623 44.751C74.0616 44.7511 74.0616 44.7512 74.0616 44.7512C74.0609 44.7513 74.0609 44.7514 74.0609 44.7515C74.0602 44.7515 74.0609 44.7515 74.0616 44.7513C74.0623 44.7509 74.066 44.75 74.071 44.7486C74.0812 44.7458 74.0985 44.741 74.1232 44.7348C74.1724 44.7222 74.2513 44.7034 74.3578 44.6815C74.5707 44.6378 74.8958 44.5817 75.3245 44.5379C76.1804 44.4505 77.4506 44.4125 79.0647 44.6226L79.2515 43.1852ZM74.5786 44.0567V42.7315H73.1304V44.0567H74.5786ZM73.7908 43.4534L84.7441 44.4255L84.8723 42.9816L73.9182 42.0095L73.7908 43.4534Z" fill="white"/>
<path d="M54.6075 49.4697C52.213 49.4697 50.3302 48.7932 48.9592 47.4404C47.6075 46.0681 46.9316 44.1837 46.9316 41.7872C46.9316 39.3906 47.6075 37.5158 48.9592 36.1629C50.3302 34.7907 52.213 34.1046 54.6075 34.1046C57.0019 34.1046 58.8751 34.7907 60.2268 36.1629C61.5978 37.5158 62.2834 39.3906 62.2834 41.7872C62.2834 44.1837 61.5978 46.0681 60.2268 47.4404C58.8751 48.7932 57.0019 49.4697 54.6075 49.4697ZM54.6075 48.8899C55.3799 48.8899 56.0268 48.3487 56.5482 47.2664C57.0888 46.184 57.3592 44.3576 57.3592 41.7872C57.3592 39.2166 57.0888 37.3902 56.5482 36.3079C56.0268 35.2255 55.3799 34.6844 54.6075 34.6844C53.8351 34.6844 53.1785 35.2255 52.6378 36.3079C52.1165 37.3902 51.8558 39.2166 51.8558 41.7872C51.8558 44.3576 52.1165 46.184 52.6378 47.2664C53.1785 48.3487 53.8351 48.8899 54.6075 48.8899Z" fill="white"/>
<path d="M29.4076 49.4697C26.9358 49.4697 25.0145 48.7932 23.6435 47.4403C22.2724 46.0681 21.5869 44.1836 21.5869 41.7871C21.5869 39.3905 22.2724 37.5158 23.6435 36.1629C25.0145 34.7906 26.9358 34.1046 29.4076 34.1046C31.1841 34.1046 32.5165 34.4137 33.4048 35.0323C34.3124 35.6507 34.7662 36.4045 34.7662 37.2935C34.7662 37.9506 34.5635 38.4822 34.158 38.888C33.7717 39.2746 33.2503 39.4679 32.5938 39.4679C32.3234 39.4679 32.0531 39.4485 31.7828 39.4099L31.4352 39.3229V34.9743L31.0297 34.8293C30.74 34.7326 30.3924 34.6844 29.9869 34.6844C28.8862 34.6844 28.0269 35.2062 27.409 36.2499C26.8103 37.2935 26.5111 39.1392 26.5111 41.7871C26.5111 44.3576 26.8103 46.1647 27.409 47.2084C28.0269 48.2327 28.8862 48.7449 29.9869 48.7449C30.74 48.7449 31.4352 48.571 32.0724 48.2231C32.7289 47.8558 33.2407 47.3823 33.6076 46.8025C33.9938 46.2034 34.1869 45.5946 34.1869 44.9761H34.9111C34.9111 45.7492 34.6793 46.4836 34.2159 47.1794C33.7524 47.8752 33.1055 48.4357 32.2752 48.8609C31.4448 49.2668 30.489 49.4697 29.4076 49.4697Z" fill="white"/>
</g>
<defs>
<clipPath id="clip0_774_2392">
<rect width="105" height="79" fill="white" transform="translate(0.152344)"/>
</clipPath>
</defs>
</svg>
